<svg class="animated" id="freepik_stories-directing-the-arrow-up" xmlns="http://www.w3.org/2000/svg" viewBox="0 0 750 500" version="1.1" xmlns:xlink="http://www.w3.org/1999/xlink" xmlns:svgjs="http://svgjs.com/svgjs"><style>svg#freepik_stories-directing-the-arrow-up:not(.animated) .animable {opacity: 0;}svg#freepik_stories-directing-the-arrow-up.animated #freepik--background-complete--inject-88 {animation: 1s 1 forwards cubic-bezier(.36,-0.01,.5,1.38) fadeIn;animation-delay: 0s;}svg#freepik_stories-directing-the-arrow-up.animated #freepik--Plant--inject-88 {animation: 1.5s Infinite  linear floating;animation-delay: 0s;}svg#freepik_stories-directing-the-arrow-up.animated #freepik--Arrow--inject-88 {animation: 1s 1 forwards ease-in slideUp,3s Infinite  linear heartbeat;animation-delay: 0s,1s;}            @keyframes fadeIn {                0% {                    opacity: 0;                }                100% {                    opacity: 1;                }            }                    @keyframes floating {                0% {                    opacity: 1;                    transform: translateY(0px);                }                50% {                    transform: translateY(-10px);                }                100% {                    opacity: 1;                    transform: translateY(0px);                }            }                    @keyframes slideUp {                0% {                    opacity: 0;                    transform: translateY(30px);                }                100% {                    opacity: 1;                    transform: inherit;                }            }                    @keyframes heartbeat {                0% {                    transform: scale(1);                }                10% {                    transform: scale(1.1);                }                30% {                    transform: scale(1);                }                40% {                    transform: scale(1);                }                50% {                    transform: scale(1.1);                }                60% {                    transform: scale(1);                }                100% {                    transform: scale(1);                }            }        .animator-hidden { display: none; }</style><g id="freepik--background-complete--inject-88" class="animable" style="transform-origin: 375px 259.01px;"><path d="M159.61,183a3,3,0,0,1,3.15,0c.27.16.54.32.81.46l.84.43a3,3,0,0,1,1.76,2.6l.12,3.88,12.63-.39-.12-3.88a3,3,0,0,1,1.59-2.72,17.68,17.68,0,0,0,1.6-1,3,3,0,0,1,3.13-.2l3.41,1.83,6-11.15L191.1,171a3,3,0,0,1-1.57-2.73c0-.63,0-1.26-.06-1.88a3,3,0,0,1,1.39-2.83l3.3-2-6.67-10.74-3.31,2.05a3,3,0,0,1-3.14,0c-.26-.16-.53-.32-.81-.47l-.83-.41a3,3,0,0,1-1.76-2.62l-.11-3.88-12.64.39.13,3.87a3,3,0,0,1-1.59,2.73,17.68,17.68,0,0,0-1.6,1,3,3,0,0,1-3.14.2l-3.41-1.82-6,11.14,3.41,1.82a3,3,0,0,1,1.57,2.73q0,.94.06,1.89a3,3,0,0,1-1.39,2.83l-3.29,2L156.32,185ZM162.78,163A10.35,10.35,0,1,1,167,177,10.37,10.37,0,0,1,162.78,163Z" style="fill: rgb(219, 219, 219); transform-origin: 171.905px 167.93px;" id="elbips9mqth47" class="animable"></path><path d="M572.41,205.07a2.12,2.12,0,0,1,1,2c0,.21,0,.43,0,.65s0,.44,0,.66a2.09,2.09,0,0,1-1,1.94l-2.35,1.36,4.42,7.67,2.36-1.36a2.1,2.1,0,0,1,2.2.08,13,13,0,0,0,1.14.66,2.11,2.11,0,0,1,1.17,1.87v2.71h8.85v-2.71a2.11,2.11,0,0,1,1.17-1.87,13,13,0,0,0,1.14-.66,2.1,2.1,0,0,1,2.2-.08l2.36,1.36,4.42-7.67-2.36-1.36a2.11,2.11,0,0,1-1-1.95c0-.21,0-.43,0-.65s0-.44,0-.65a2.11,2.11,0,0,1,1-2l2.35-1.35-4.42-7.67-2.35,1.35a2.1,2.1,0,0,1-2.21-.07,11.66,11.66,0,0,0-1.14-.66,2.11,2.11,0,0,1-1.17-1.87v-2.71h-8.85v2.71a2.11,2.11,0,0,1-1.17,1.87,13,13,0,0,0-1.14.66,2.1,2.1,0,0,1-2.21.07l-2.35-1.35-4.42,7.67Zm13.36-4.65a7.26,7.26,0,1,1-7.25,7.26A7.26,7.26,0,0,1,585.77,200.42Z" style="fill: rgb(219, 219, 219); transform-origin: 585.77px 207.7px;" id="ell0j7opxlqlk" class="animable"></path><path d="M616.67,280.7a34.48,34.48,0,1,0,34.48-34.48A34.48,34.48,0,0,0,616.67,280.7Zm18.38,0a16.11,16.11,0,1,1,16.1,16.1A16.1,16.1,0,0,1,635.05,280.7Z" style="fill: rgb(235, 235, 235); transform-origin: 651.15px 280.7px;" id="eljrtrcq4qh2" class="animable"></path><polygon points="644.52 247.65 657.78 247.65 657.05 238.26 645.26 238.26 644.52 247.65" style="fill: rgb(235, 235, 235); transform-origin: 651.15px 242.955px;" id="elcbodsore354" class="animable"></polygon><polygon points="669.76 252.12 679.14 261.5 685.26 254.34 676.92 246 669.76 252.12" style="fill: rgb(235, 235, 235); transform-origin: 677.51px 253.75px;" id="elqzcxjinusc" class="animable"></polygon><polygon points="684.45 273.12 684.45 286.38 693.84 285.65 693.84 273.86 684.45 273.12" style="fill: rgb(235, 235, 235); transform-origin: 689.145px 279.75px;" id="el5o8sas3400d" class="animable"></polygon><polygon points="679.98 298.36 670.61 307.74 677.76 313.86 686.1 305.52 679.98 298.36" style="fill: rgb(235, 235, 235); transform-origin: 678.355px 306.11px;" id="elj2isbk3x3cp" class="animable"></polygon><polygon points="658.98 313.05 645.72 313.05 646.45 322.44 658.24 322.44 658.98 313.05" style="fill: rgb(235, 235, 235); transform-origin: 652.35px 317.745px;" id="eln4uqexgw4u" class="animable"></polygon><polygon points="633.74 308.58 624.36 299.21 618.24 306.36 626.58 314.7 633.74 308.58" style="fill: rgb(235, 235, 235); transform-origin: 625.99px 306.955px;" id="elccb9yfptpk" class="animable"></polygon><polygon points="619.05 287.58 619.05 274.32 609.66 275.05 609.66 286.84 619.05 287.58" style="fill: rgb(235, 235, 235); transform-origin: 614.355px 280.95px;" id="el9odtdw3rma" class="animable"></polygon><polygon points="623.52 262.34 632.89 252.96 625.74 246.84 617.4 255.18 623.52 262.34" style="fill: rgb(235, 235, 235); transform-origin: 625.145px 254.59px;" id="elzt0ckfosjlf" class="animable"></polygon><path d="M63.17,114.56A34.48,34.48,0,1,0,97.65,80.08,34.48,34.48,0,0,0,63.17,114.56Zm18.38,0a16.11,16.11,0,1,1,16.1,16.1A16.1,16.1,0,0,1,81.55,114.56Z" style="fill: rgb(235, 235, 235); transform-origin: 97.65px 114.56px;" id="elj2umue1hx8k" class="animable"></path><polygon points="91.02 81.51 104.28 81.51 103.55 72.13 91.76 72.13 91.02 81.51" style="fill: rgb(235, 235, 235); transform-origin: 97.65px 76.82px;" id="el4utsgrl77sx" class="animable"></polygon><polygon points="116.26 85.98 125.64 95.36 131.76 88.2 123.42 79.86 116.26 85.98" style="fill: rgb(235, 235, 235); transform-origin: 124.01px 87.61px;" id="el3q1nad809bx" class="animable"></polygon><polygon points="130.95 106.98 130.95 120.24 140.34 119.51 140.34 107.72 130.95 106.98" style="fill: rgb(235, 235, 235); transform-origin: 135.645px 113.61px;" id="eline04vorntp" class="animable"></polygon><polygon points="126.48 132.22 117.11 141.6 124.26 147.72 132.6 139.38 126.48 132.22" style="fill: rgb(235, 235, 235); transform-origin: 124.855px 139.97px;" id="elnthmuzeso" class="animable"></polygon><polygon points="105.48 146.91 92.22 146.91 92.95 156.3 104.74 156.3 105.48 146.91" style="fill: rgb(235, 235, 235); transform-origin: 98.85px 151.605px;" id="eltw4seq5vcrn" class="animable"></polygon><polygon points="80.24 142.44 70.86 133.07 64.74 140.22 73.08 148.56 80.24 142.44" style="fill: rgb(235, 235, 235); transform-origin: 72.49px 140.815px;" id="elumcn2dy263" class="animable"></polygon><polygon points="65.55 121.44 65.55 108.18 56.16 108.91 56.16 120.7 65.55 121.44" style="fill: rgb(235, 235, 235); transform-origin: 60.855px 114.81px;" id="el4k87aidhjz5" class="animable"></polygon><polygon points="70.02 96.2 79.39 86.82 72.24 80.7 63.9 89.04 70.02 96.2" style="fill: rgb(235, 235, 235); transform-origin: 71.645px 88.45px;" id="el45cevodpe07" class="animable"></polygon><path d="M426.33,154.87c-6,.1-21.25.35-27.09.41l-9.13.05h-.45v-.46l0-11.19v-.5h.5l18.11.07c4.51,0,13.6.13,18.11.2h.24v.23l-.23,11.19Zm0,0-.23-11.19.23.23c-4.52.07-13.59.16-18.11.2l-18.11.07.5-.5,0,11.19-.46-.46,9,0c5.74.07,21.3.32,27.24.42Z" style="fill: rgb(235, 235, 235); transform-origin: 408.14px 149.255px;" id="elt147o11q2ea" class="animable"></path><path d="M406.13,169c-6,.1-21.26.35-27.09.41l-9.13.05h-.46V169l0-11.19v-.5h.5l18.11.07c4.5,0,13.6.13,18.11.2h.23v.23L406.13,169Zm0,0-.24-11.19.24.23c-4.52.07-13.6.16-18.11.2l-18.11.07.5-.5L370.36,169l-.45-.46,9,0c5.74.07,21.31.32,27.25.42Z" style="fill: rgb(235, 235, 235); transform-origin: 387.925px 163.385px;" id="el2slv7l9u62z" class="animable"></path><rect x="410.31" y="157.79" width="36.22" height="11.19" style="fill: rgb(235, 235, 235); transform-origin: 428.42px 163.385px;" id="elgohla9fl5b" class="animable"></rect><path d="M294,250c-6,.1-21.26.35-27.09.41l-9.13.05h-.46V250l0-11.19v-.5h.5l18.11.07c4.51,0,13.6.13,18.11.2h.23v.23L294,250Zm0,0-.24-11.19.24.23c-4.52.07-13.6.16-18.11.2l-18.11.07.5-.5L258.18,250l-.45-.46,9,.05c5.74.06,21.31.31,27.25.41Z" style="fill: rgb(235, 235, 235); transform-origin: 275.795px 244.385px;" id="elz4er598ya0b" class="animable"></path><path d="M670.4,63.61c-6,.1-21.25.35-27.09.42l-9.13,0h-.45v-.46l0-11.19v-.5h.5l18.11.07c4.51,0,13.6.14,18.11.2h.24v.23l-.23,11.19Zm0,0-.23-11.19.23.24c-4.52.06-13.59.16-18.11.19l-18.11.07.5-.5,0,11.19-.46-.45,9,0c5.74.06,21.3.31,27.24.41Z" style="fill: rgb(235, 235, 235); transform-origin: 652.21px 57.955px;" id="el4uhtll5zz0c" class="animable"></path><rect x="654.38" y="66.53" width="36.22" height="11.19" style="fill: rgb(235, 235, 235); transform-origin: 672.49px 72.125px;" id="ela069zz9ri0p" class="animable"></rect><path d="M95.62,63.62c-6,.11-21.26.36-27.09.42l-9.13,0h-.46v-.46l0-11.18v-.51h.5L77.51,52c4.5,0,13.6.14,18.11.2h.23v.23l-.23,11.18Zm0,0-.24-11.18.24.23c-4.52.06-13.6.16-18.11.2l-18.11.06.5-.49,0,11.18-.45-.45,9,0c5.74.06,21.31.32,27.25.41Z" style="fill: rgb(235, 235, 235); transform-origin: 77.395px 57.965px;" id="elbdh0kvdw46s" class="animable"></path><path d="M79.6,399.13c6-.1,21.44-.35,27.24-.42l9,0-.46.46,0-11.19.5.5-18.11-.07c-4.51,0-13.6-.14-18.11-.2l.23-.23-.23,11.19Zm0,0-.23-11.19v-.23h.24c4.52-.05,13.59-.16,18.11-.19l18.11-.07h.5v.5l0,11.19v.46h-.45l-9.13,0c-5.77-.06-21.13-.31-27.09-.41Z" style="fill: rgb(235, 235, 235); transform-origin: 97.85px 393.525px;" id="el5f73kao3fwp" class="animable"></path><g id="elfu3cxde17a"><rect x="59.4" y="402.05" width="36.22" height="11.19" style="fill: rgb(235, 235, 235); transform-origin: 77.51px 407.645px; transform: rotate(180deg);" class="animable" id="elkwsfyb5mve"></rect></g><path d="M654.38,399.14c6-.1,21.44-.35,27.25-.42l9,0-.45.46,0-11.19.5.5-18.11-.07c-4.51,0-13.6-.14-18.11-.2l.24-.23-.24,11.19Zm0,0L654.15,388v-.23h.23c4.52-.06,13.6-.17,18.11-.2l18.11-.07h.5v.5l0,11.19v.46h-.46l-9.13-.05c-5.77-.06-21.13-.31-27.09-.41Z" style="fill: rgb(235, 235, 235); transform-origin: 672.625px 393.575px;" id="elka22wfpsetl" class="animable"></path><rect x="557.57" y="413.57" width="112.13" height="52.57" style="fill: rgb(235, 235, 235); transform-origin: 613.635px 439.855px;" id="el0ljya9phbkg" class="animable"></rect><g id="el6d35lwsar8j"><rect x="632.58" y="413.57" width="37.13" height="52.57" style="fill: rgb(2, 1, 0); opacity: 0.1; transform-origin: 651.145px 439.855px;" class="animable" id="elut2ndxksqp"></rect></g><g id="el3hurejm2o1u"><polygon points="669.7 413.57 557.57 413.57 557.57 425.12 669.7 419.35 669.7 413.57" style="fill: rgb(2, 1, 0); opacity: 0.1; transform-origin: 613.635px 419.345px;" class="animable" id="eltqn7wxi56ns"></polygon></g><rect x="552.7" y="403.6" width="121.86" height="13.18" style="fill: rgb(235, 235, 235); transform-origin: 613.63px 410.19px;" id="elet9fr8z9u7n" class="animable"></rect><g id="elbh61kbawaie"><rect x="634.22" y="403.6" width="40.35" height="13.18" style="fill: rgb(2, 1, 0); opacity: 0.1; transform-origin: 654.395px 410.19px;" class="animable" id="ely83wejffp1p"></rect></g><rect x="582.08" y="423.89" width="25.99" height="8.06" style="fill: rgb(166, 166, 166); transform-origin: 595.075px 427.92px;" id="eldggm8ctqoit" class="animable"></rect><rect x="547.63" y="343.58" width="72.11" height="52.27" style="fill: rgb(235, 235, 235); transform-origin: 583.685px 369.715px;" id="elbi5luw54c78" class="animable"></rect><polygon points="573.11 338.16 547.63 338.16 547.63 343.58 574.57 343.58 573.11 338.16" style="fill: rgb(235, 235, 235); transform-origin: 561.1px 340.87px;" id="elprxwqrwgeoi" class="animable"></polygon><g id="el60gk5y8y2fd"><g style="opacity: 0.3; transform-origin: 583.685px 367.005px;" class="animable" id="el2xnvw4qxgsd"><rect x="547.63" y="343.58" width="72.11" height="52.27" id="el2363lbr8haw" class="animable" style="transform-origin: 583.685px 369.715px;"></rect><polygon points="573.11 338.16 547.63 338.16 547.63 343.58 574.57 343.58 573.11 338.16" id="elspbg0erku4j" class="animable" style="transform-origin: 561.1px 340.87px;"></polygon></g></g><rect x="550.13" y="340.28" width="20.84" height="3.15" style="fill: rgb(255, 255, 255); transform-origin: 560.55px 341.855px;" id="elptq33h5szsg" class="animable"></rect><polygon points="619.74 395.85 547.63 395.85 547.11 346.82 619.22 346.82 619.74 395.85" style="fill: rgb(235, 235, 235); transform-origin: 583.425px 371.335px;" id="elseaugs47jfk" class="animable"></polygon><polygon points="572.53 341.85 547.05 341.85 547.11 346.82 574.05 346.82 572.53 341.85" style="fill: rgb(235, 235, 235); transform-origin: 560.55px 344.335px;" id="elavtlkslhbhg" class="animable"></polygon><g id="el2i95fz6acut"><g style="opacity: 0.1; transform-origin: 583.395px 368.85px;" class="animable" id="elmp7zt8ew51h"><polygon points="619.74 395.85 547.63 395.85 547.11 346.82 619.22 346.82 619.74 395.85" id="elkt6n9l84jrp" class="animable" style="transform-origin: 583.425px 371.335px;"></polygon><polygon points="572.53 341.85 547.05 341.85 547.11 346.82 574.05 346.82 572.53 341.85" id="elsi2eorbobka" class="animable" style="transform-origin: 560.55px 344.335px;"></polygon></g></g><rect x="538.34" y="347.52" width="72.11" height="52.27" style="fill: rgb(235, 235, 235); transform-origin: 574.395px 373.655px;" id="el3k9sy6c2qun" class="animable"></rect><polygon points="563.82 342.1 538.34 342.1 538.34 347.52 565.28 347.52 563.82 342.1" style="fill: rgb(235, 235, 235); transform-origin: 551.81px 344.81px;" id="el5ay3i6vbpc8" class="animable"></polygon><g id="el530ur0fm5wt"><g style="opacity: 0.2; transform-origin: 574.395px 370.945px;" class="animable" id="elg5ahugkutad"><rect x="538.34" y="347.52" width="72.11" height="52.27" style="fill: rgb(255, 255, 255); transform-origin: 574.395px 373.655px;" id="elkd8xq1d1hza" class="animable"></rect><polygon points="563.82 342.1 538.34 342.1 538.34 347.52 565.28 347.52 563.82 342.1" style="fill: rgb(255, 255, 255); transform-origin: 551.81px 344.81px;" id="elb9526mxgysr" class="animable"></polygon></g></g><rect x="540.84" y="344.22" width="20.84" height="3.15" style="fill: rgb(255, 255, 255); transform-origin: 551.26px 345.795px;" id="elm52byr4pv37" class="animable"></rect><polygon points="610.45 399.79 538.34 399.79 537.81 350.76 609.92 350.76 610.45 399.79" style="fill: rgb(235, 235, 235); transform-origin: 574.13px 375.275px;" id="ely7qwj14gxy8" class="animable"></polygon><polygon points="563.24 345.79 537.76 345.79 537.81 350.76 564.75 350.76 563.24 345.79" style="fill: rgb(235, 235, 235); transform-origin: 551.255px 348.275px;" id="elsmt5hrdpcsd" class="animable"></polygon><g id="elolzxlv0gnab"><g style="opacity: 0.4; transform-origin: 574.105px 372.79px;" class="animable" id="el0v1hqofz3aq"><polygon points="610.45 399.79 538.34 399.79 537.81 350.76 609.92 350.76 610.45 399.79" style="fill: rgb(255, 255, 255); transform-origin: 574.13px 375.275px;" id="el177612lxs93" class="animable"></polygon><polygon points="563.24 345.79 537.76 345.79 537.81 350.76 564.75 350.76 563.24 345.79" style="fill: rgb(255, 255, 255); transform-origin: 551.255px 348.275px;" id="el84tj5b68vmv" class="animable"></polygon></g></g><rect x="535.31" y="351.04" width="112.13" height="52.57" style="fill: rgb(219, 219, 219); transform-origin: 591.375px 377.325px;" id="el56qv6tdj9qt" class="animable"></rect><rect x="610.32" y="351.04" width="37.13" height="52.57" style="fill: rgb(199, 199, 199); transform-origin: 628.885px 377.325px;" id="elkkw33dniphk" class="animable"></rect><g id="elyy6vsm6ko9c"><polygon points="647.45 351.04 535.31 351.04 535.31 362.59 647.45 356.81 647.45 351.04" style="fill: rgb(2, 1, 0); opacity: 0.1; transform-origin: 591.38px 356.815px;" class="animable" id="elnbkn6wi0rpl"></polygon></g><rect x="559.82" y="361.35" width="25.99" height="8.06" style="fill: rgb(166, 166, 166); transform-origin: 572.815px 365.38px;" id="els71ondsummq" class="animable"></rect><g id="el523k70di0df"><rect x="549.39" y="334.28" width="121.86" height="13.18" style="fill: rgb(219, 219, 219); transform-origin: 610.32px 340.87px; transform: rotate(10.9722deg);" class="animable" id="elheruiymbf0k"></rect></g><g id="ellbf8v1kuxqp"><rect x="630.19" y="341.88" width="40.35" height="13.18" style="fill: rgb(199, 199, 199); transform-origin: 650.365px 348.47px; transform: rotate(10.75deg);" class="animable" id="el6vqbt2d536"></rect></g><polygon points="392.98 82.7 361.25 144.69 352.32 130.87 246.51 199.28 226.55 168.41 332.35 100.01 323.42 86.2 392.98 82.7" style="fill: rgb(235, 235, 235); transform-origin: 309.765px 140.99px;" id="elcq6qqcqacn7" class="animable"></polygon><polygon points="186.64 194.22 206.59 225.09 203.91 226.82 183.94 195.95 186.64 194.22" style="fill: rgb(235, 235, 235); transform-origin: 195.265px 210.52px;" id="elpr6webly4" class="animable"></polygon><polygon points="200.62 185.18 220.58 216.04 211.44 221.96 191.49 191.09 200.62 185.18" style="fill: rgb(235, 235, 235); transform-origin: 206.035px 203.57px;" id="elykb121xbc0k" class="animable"></polygon><polygon points="220.31 172.45 240.27 203.31 226.16 212.44 206.2 181.56 220.31 172.45" style="fill: rgb(235, 235, 235); transform-origin: 223.235px 192.445px;" id="elgh9dmnkht3q" class="animable"></polygon><polygon points="219.87 261.85 201.54 297.63 196.39 289.66 135.34 329.13 123.82 311.32 184.88 271.84 179.73 263.87 219.87 261.85" style="fill: rgb(219, 219, 219); transform-origin: 171.845px 295.49px;" id="elqctacr2spm" class="animable"></polygon><polygon points="120.22 313.65 131.73 331.46 123.59 336.73 112.07 318.91 120.22 313.65" style="fill: rgb(219, 219, 219); transform-origin: 121.9px 325.19px;" id="el83rbgrr7r63" class="animable"></polygon><g id="elsf6bv179mj"><rect x="108.83" y="321" width="6.28" height="21.22" style="fill: rgb(219, 219, 219); transform-origin: 111.97px 331.61px; transform: rotate(-32.7352deg);" class="animable" id="elp2bd4v2owkf"></rect></g><polygon points="100.78 326.21 112.3 344.03 110.75 345.03 99.23 327.21 100.78 326.21" style="fill: rgb(219, 219, 219); transform-origin: 105.765px 335.62px;" id="eldzisxc37ghe" class="animable"></polygon><path d="M188.77,384.72c-7.15-10.66-17-25.31-23.83-36l3.94-2.57c6.77,10.56,16.62,25.91,23.1,36.47l.05.08-.08,0-3.18,1.94Zm0,0,3.08-2.1,0,.13c-6.82-10-16.81-25.32-23.51-35.61l.7.15-3.14,2,.15-.67c6.66,10.3,16.16,25.5,22.75,36.09Z" style="fill: rgb(235, 235, 235); transform-origin: 178.485px 365.435px;" id="el3fiea045bs7" class="animable"></path><path d="M408.22,217.45c-.52.65-36.38,71.9-36.81,72.47l-.25-.39-10.38-16c2-.25-122.79,79.58-122.3,79.63l-.39.25-.26-.39-23.16-35.84-.26-.4.4-.25c.1.33,123.62-80.39,122.8-78.83l-10.34-16-.25-.39c.39,0,80.76-3.77,81.2-3.81Zm0,0c0-.26-81.89,5-80.51,3.91l10.39,16c.69.51-122.67,79.55-122.77,79.93l.14-.65,23.15,35.83-.65-.14c.41.08,123.09-80,123.29-79.15l10.35,16.05c-1.63,1,37-71.89,36.61-71.8Z" style="fill: rgb(235, 235, 235); transform-origin: 311.316px 285.42px;" id="elwg94zr445o8" class="animable"></path><path d="M185,336.38c3.94,5.91,13.9,20.84,17.68,26.58l5.87,9,.25.38-.39.26-10.59,6.88-.41.27-.28-.42c-3.82-6-13.59-21.16-17.24-26.95l-5.69-9-.13-.19.19-.12L185,336.38Zm0,0-10.49,7.05.07-.32,5.88,8.9c3.75,5.63,13.7,20.91,17.51,26.78l-.69-.15,10.63-6.81-.13.63L202,363.54c-3.63-5.71-13.36-21.23-17.07-27.16Z" style="fill: rgb(235, 235, 235); transform-origin: 191.435px 358.065px;" id="elfqso7ryrhdn" class="animable"></path><path d="M207.81,321.6c7,10.54,16.77,25.12,23.54,35.6l.24.37-.37.24-16.35,10.63-.42.28-.27-.43-11.53-18c-3.91-6-7.73-12.16-11.6-18.24l16.76-10.5Zm0,0c-4,2.72-12.17,8.13-16.21,10.83l.08-.39c3.9,5.94,7.85,11.86,11.71,17.83L215,367.75l-.69-.15,16.41-10.54-.13.62c-6.64-10.33-16.16-25.51-22.8-36.08Z" style="fill: rgb(235, 235, 235); transform-origin: 211.32px 345.135px;" id="el39wc2qyx5ae" class="animable"></path></g><g id="freepik--Floor--inject-88" class="animable animator-hidden" style="transform-origin: 375px 466.14px;"><path d="M59.29,466.14c202.26-.61,429.16-.62,631.42,0-202.26.62-429.16.61-631.42,0Z" style="fill: rgb(38, 50, 56); transform-origin: 375px 466.14px;" id="el6zrbwm6m1b5" class="animable"></path></g><g id="freepik--Plant--inject-88" class="animable" style="transform-origin: 112.38px 331.85px;"><path d="M109.1,254.46s-26.91-3.76-20.62-36.24C88.48,218.22,118.54,225,109.1,254.46Z" style="fill: #FFFFFF; transform-origin: 99.2309px 236.34px;" id="el3dtipt2r48i" class="animable"></path><g id="elynodjfskeab"><path d="M109.1,254.46s-26.91-3.76-20.62-36.24C88.48,218.22,118.54,225,109.1,254.46Z" style="opacity: 0.1; transform-origin: 99.2309px 236.34px;" class="animable" id="elkhagqf5vn1"></path></g><path d="M107.74,247.68c-.53-1.64-1.15-3.25-1.83-4.84,0-.21,0-.41-.07-.61,0-.45-.08-.9-.11-1.34-.08-1-.14-1.94-.2-2.91-.11-1.94-.24-3.89-.27-5.83,0-.1-.16-.1-.16,0,0,1.94,0,3.88,0,5.83,0,1,.09,1.94.16,2.91,0,.21,0,.43,0,.64a57.41,57.41,0,0,0-5.39-9.22A46.35,46.35,0,0,0,97,228.59c-1.08-1.23-2.21-2.4-3.29-3.61-.07-.08-.19,0-.12.12A47.79,47.79,0,0,1,98.78,232q1.23,1.86,2.32,3.8l-.25-.1c-.32-.13-.63-.27-1-.39l-2.19-.83c-1.45-.54-2.89-1.06-4.33-1.61-.09,0-.15.12-.06.15,1.43.57,2.85,1.17,4.26,1.78l2.08.9,1,.43a3.28,3.28,0,0,0,.72.26c.54,1,1.08,2,1.57,3a67.72,67.72,0,0,1,3.29,7.75c.07.18.13.37.19.55a16.43,16.43,0,0,0-2.2-1.06l-2.79-1.27c-1.88-.86-3.76-1.74-5.57-2.77-.09-.05-.17.1-.07.15,1.84,1,3.66,2.08,5.51,3.09.92.5,1.85,1,2.8,1.45a8.76,8.76,0,0,0,2.53,1,31.79,31.79,0,0,1,1.76,7.63c.3,3.67.27,7.38.35,11.06,0,.06.1.06.1,0,.27-3.34.42-6.71.44-10.07A29.26,29.26,0,0,0,107.74,247.68Z" style="fill: rgb(38, 50, 56); transform-origin: 101.233px 245.981px;" id="el2vzezprb8at" class="animable"></path><path d="M103.6,228.58a32.32,32.32,0,0,0-.27,5.73,0,0,0,0,0,.08,0c.11-1.9.13-3.8.35-5.69C103.77,228.52,103.61,228.48,103.6,228.58Z" style="fill: rgb(38, 50, 56); transform-origin: 103.531px 231.416px;" id="el7w0lixw5e3v" class="animable"></path><path d="M95.9,230.21a21.34,21.34,0,0,1-3.46-1.7c-.08-.06-.17.09-.08.14a13.1,13.1,0,0,0,3.5,1.67A.06.06,0,0,0,95.9,230.21Z" style="fill: rgb(38, 50, 56); transform-origin: 94.125px 229.408px;" id="elsjug7n95jj" class="animable"></path><path d="M110,306c0-3-.08-5.95-.11-8.92-.06-9.88-.14-19.75-.32-29.62q-.21-11.76-.55-23.52a.15.15,0,0,0-.06-.1c0-2.14,0-4.28,0-6.42,0,0-.06-.08-.13-.08s-.13,0-.13.09q0,3.21,0,6.43a.11.11,0,0,0-.06.09c-.39,14-.75,27.9-.83,41.86,0,2.83,0,5.67,0,8.51q-.14,13.63-.1,27.29c0,1.45,0,2.89,0,4.34,0,8.33.08,16.65.09,25,0,.45.49.67,1,.69s1.25-.21,1.25-.72c0-9.18.06-18.36.06-27.54C110,317.6,110,311.81,110,306Z" style="fill: rgb(38, 50, 56); transform-origin: 108.906px 294.491px;" id="elj4pjloufpn9" class="animable"></path><path d="M98.72,297s-12.94-9.59-25.22-3.11-14.21,31.46-14.21,31.46,18,2.57,29.39-8.24C99.63,306.69,98.72,297,98.72,297Z" style="fill: #FFFFFF; transform-origin: 79.0142px 308.629px;" id="elpji8v12ofk" class="animable"></path><path d="M102.25,297.58a15.52,15.52,0,0,0-7.5-1,10.45,10.45,0,0,0-1.58-.16l-1.83-.14-3.77-.26c-2.55-.19-5.11-.35-7.66-.61a.09.09,0,0,0,0,.17c2.52.32,5,.68,7.56.93,1.3.13,2.6.27,3.91.36l.94.09c-.38.09-.77.18-1.14.29a30.73,30.73,0,0,0-5.87,2.38c-1,.18-2,.47-3,.71-1.6.37-3.2.79-4.79,1.2-3.14.83-6.25,1.75-9.37,2.66-.1,0,0,.18.05.16,3.12-.77,6.25-1.47,9.37-2.21l4.55-1.09,1.19-.28a38.14,38.14,0,0,0-9.2,8,50.22,50.22,0,0,0-6.39,10.08c0,.1.09.19.14.09a49.2,49.2,0,0,1,7.73-10.15c-.05.17-.11.34-.16.51-.25.77-.48,1.53-.72,2.29-.48,1.52-1,3.05-1.42,4.58,0,.1.12.13.16,0,.54-1.48,1.06-3,1.58-4.45l.77-2.19.39-1.13.12-.35a47.18,47.18,0,0,1,4.59-3.91,34.65,34.65,0,0,1,6.87-3.94c0,.23-.08.45-.13.66-.13.59-.26,1.18-.38,1.77-.25,1.23-.49,2.46-.73,3.69-.49,2.5-.79,5-1.26,7.54,0,.1.14.14.16,0,.58-2.52,1.33-5,1.89-7.52.28-1.26.56-2.53.83-3.79l.36-1.78c.06-.33.14-.66.18-1l.7-.29c3.4-1.25,7.15-2.17,10.77-1.47a10.58,10.58,0,0,1,7.79,6.24c.11.28.56.11.49-.18C107.69,301.09,105.09,298.78,102.25,297.58Z" style="fill: rgb(38, 50, 56); transform-origin: 88.0837px 307.202px;" id="elvodfvzsbcrp" class="animable"></path><path d="M82.44,308.25q-.56,2.46-1.09,4.92a35.34,35.34,0,0,0-.91,4.78c0,.07.09.07.11,0a37.64,37.64,0,0,0,1.1-4.81c.32-1.62.63-3.24.95-4.86C82.62,308.19,82.46,308.15,82.44,308.25Z" style="fill: rgb(38, 50, 56); transform-origin: 81.5209px 313.097px;" id="elxympa6wadlc" class="animable"></path><path d="M69.92,312.42c-1.64.83-3.24,1.78-5,2.47A.08.08,0,1,0,65,315,52.43,52.43,0,0,0,70,312.48S70,312.4,69.92,312.42Z" style="fill: rgb(38, 50, 56); transform-origin: 67.423px 313.733px;" id="elreydmh45ul" class="animable"></path><path d="M101.63,279.38s-15.81,1-23.17-9.42-5.71-25.32-5.71-25.32,16.62,2,23.21,9.51S101.63,279.38,101.63,279.38Z" style="fill: #FFFFFF; transform-origin: 87.1329px 262.023px;" id="elwp4v0uiyl8f" class="animable"></path><path d="M109.06,295c-.55-1.69-1.23-3.36-1.87-5s-1.27-3.17-2-4.73a98.24,98.24,0,0,0-4.74-9.32c-1.11-1.92-2.31-3.79-3.54-5.63,0-.28-.08-.56-.13-.84-.07-.49-.14-1-.22-1.47-.15-1-.33-2-.5-3-.36-2.18-.81-4.35-1.16-6.54,0-.1-.18-.1-.16,0,.32,2.15.53,4.32.84,6.48.14,1.06.28,2.13.44,3.19l.18,1.14a110.77,110.77,0,0,0-7.82-10.14c-.38-.44-.77-.87-1.15-1.3,0-.12-.1-.24-.15-.36-.12-.3-.23-.6-.34-.9-.24-.63-.46-1.26-.69-1.89-.44-1.24-.84-2.49-1.18-3.76,0-.1-.18-.06-.15,0,.31,1.29.65,2.59,1,3.87.19.62.39,1.23.61,1.84,0,.1.07.2.11.31-2-2.21-4.13-4.33-6.26-6.43a.08.08,0,1,0-.11.12,112.77,112.77,0,0,1,11.2,13.73,9.56,9.56,0,0,0-1.17-.3c-1.22-.24-2.44-.41-3.67-.56-2.58-.33-5.15-.66-7.72-1.06-.1,0-.14.14,0,.16,2.45.48,4.88,1,7.32,1.59,1.15.26,2.3.49,3.45.72a21.59,21.59,0,0,1,2.78.79c.26.36.52.72.77,1.09,1.16,1.69,2.28,3.42,3.37,5.15l-1.62-.31c-1.22-.24-2.44-.46-3.67-.66-2.41-.4-4.83-.82-7.21-1.36a.08.08,0,0,0,0,.16c2.42.57,4.81,1.23,7.21,1.87,1.16.31,2.33.59,3.5.85l1.76.38a3.9,3.9,0,0,0,.71.12q3.47,5.63,6.49,11.49,1.32,2.58,2.55,5.21c.85,1.8,1.57,3.63,2.35,5.45C108.61,295.54,109.18,295.39,109.06,295Z" style="fill: rgb(38, 50, 56); transform-origin: 93.8479px 272.938px;" id="elkiurjue8wd" class="animable"></path><path d="M92.87,258.64c-.3-1.51-.62-3-1-4.52,0-.1-.18-.05-.15,0,.3,1.48.58,3,.85,4.46a44.56,44.56,0,0,0,.9,4.43s0,0,0,0A31.35,31.35,0,0,0,92.87,258.64Z" style="fill: rgb(38, 50, 56); transform-origin: 92.5933px 258.536px;" id="elv5atd4u5lp" class="animable"></path><path d="M83.64,258.2c-.73-.37-1.51-.66-2.27-1l-1.2-.47-.61-.24a3.08,3.08,0,0,1-.67-.29c-.12-.09-.2.12-.08.14a2.84,2.84,0,0,1,.68.27l.6.27,1.15.51a21.49,21.49,0,0,0,2.34.93C83.67,258.39,83.73,258.24,83.64,258.2Z" style="fill: rgb(38, 50, 56); transform-origin: 81.2176px 257.258px;" id="elu0ovzwsqf7r" class="animable"></path><path d="M117.82,267S127.4,249.07,142,246.3s23.47,12.21,23.47,12.21-10.62,13.57-24,15.94S117.82,267,117.82,267Z" style="fill: #FFFFFF; transform-origin: 141.645px 260.389px;" id="el53d6v6x5d4l" class="animable"></path><path d="M151.72,254.31a39.74,39.74,0,0,0-11.42.14l.64-.35,3.24-1.66A73.06,73.06,0,0,1,151,249.1.08.08,0,1,0,151,249c-2.28,1.06-4.64,2-6.93,3-1.14.52-2.27,1.07-3.38,1.66-.72.38-1.51.74-2.22,1.2a39.88,39.88,0,0,0-9.25,3.07l1.82-2c1.36-1.49,2.69-3.05,4.18-4.4.08-.07,0-.18-.12-.11-1.52,1.38-3.13,2.66-4.61,4.1-.72.7-1.4,1.42-2.07,2.17-.33.37-.67.75-1,1.15a38.38,38.38,0,0,0-19.53,26.36c0,.1.13.16.16.06a44,44,0,0,1,10.7-18.12,42.08,42.08,0,0,1,19.51-11.29,42.73,42.73,0,0,1,13.47-1.22A.15.15,0,0,0,151.72,254.31Z" style="fill: rgb(38, 50, 56); transform-origin: 129.887px 267.141px;" id="elpobx6do63fq" class="animable"></path><g id="elq6raacx8rnh"><path d="M165.43,258.52s-10.62,13.56-24,15.93c-10.19,1.8-18.58-3.51-22-6.13l-.74-1.21s6.9-5.81,19.94-9.16S165.43,258.52,165.43,258.52Z" style="opacity: 0.1; transform-origin: 142.06px 265.705px;" class="animable" id="elifssmc669e"></path></g><path d="M143.26,247.94a34.78,34.78,0,0,0-3.24,2.13,20.67,20.67,0,0,0-2.8,2.57.08.08,0,0,0,.12.12c1-.84,1.94-1.68,2.94-2.47a30.2,30.2,0,0,1,3.07-2.21A.08.08,0,0,0,143.26,247.94Z" style="fill: rgb(38, 50, 56); transform-origin: 140.292px 250.356px;" id="eldjkf6c2rzok" class="animable"></path><path d="M151.25,251c-.54.23-1.09.42-1.63.65l-1.62.67c-.12.05-.06.24.06.19l1.62-.66c.54-.22,1.07-.47,1.62-.69C151.39,251.08,151.35,250.92,151.25,251Z" style="fill: rgb(38, 50, 56); transform-origin: 149.642px 251.748px;" id="elq9iar2f5vlb" class="animable"></path><path d="M115.91,289.45s2.56,17.74,15.9,23.94,29.59,0,29.59,0S155,275,115.91,289.45Z" style="fill: #FFFFFF; transform-origin: 138.655px 301.172px;" id="elfujwxd3odjs" class="animable"></path><path d="M152.21,301.85c-1.23-.14-2.45-.35-3.67-.57l-1.79-.34c-.3-.06-.62-.13-.94-.18-.35-.34-.71-.68-1.08-1a53.8,53.8,0,0,0-8.15-5.92,47,47,0,0,0-4.89-2.51h.25l4.39.19c2.93.14,5.85.2,8.78.39.11,0,.1-.16,0-.16-2.94-.2-5.86-.52-8.79-.78l-4.27-.38-2.2-.19-.56-.06c-.76-.28-1.53-.55-2.3-.79a20.8,20.8,0,0,0-11.3-.62c-3.35.86-6.7,3.05-7.57,6.59,0,.12.16.21.21.09,1.25-3,4.53-4.45,7.49-5.06a17.76,17.76,0,0,1,6-.12,14.82,14.82,0,0,0,.68,2.68c.37,1.25.73,2.5,1.11,3.74.76,2.49,1.59,5,2.33,7.46a.08.08,0,0,0,.15-.05c-.62-2.49-1.14-5-1.74-7.49-.29-1.23-.6-2.45-.91-3.67a19.37,19.37,0,0,0-.67-2.53,32.87,32.87,0,0,1,3.46.82,49.92,49.92,0,0,1,6,2.22c.19,1.26.48,2.51.77,3.76.36,1.57.77,3.12,1.26,4.65a.08.08,0,0,0,.15,0l-.06-.29h0c-.3-1.45-.62-2.9-.92-4.35-.25-1.17-.48-2.34-.73-3.51,1.66.75,3.28,1.56,4.86,2.47,0,.36.12.73.17,1.06.1.61.21,1.21.32,1.82.25,1.37.52,2.73.85,4.08a65.09,65.09,0,0,0,2.29,7.72.09.09,0,0,0,0,.1l.07.09c.06.06.15,0,.14-.09-.62-2.63-1.32-5.23-1.9-7.87-.29-1.32-.58-2.63-.84-4-.14-.66-.26-1.32-.38-2,0-.19-.07-.39-.1-.59a53.94,53.94,0,0,1,5.2,3.46,56.39,56.39,0,0,1,8,7.26c.09.1.28,0,.19-.16a47.16,47.16,0,0,0-3.18-3.88c-.67-.72-1.36-1.41-2.07-2.09l.22,0c.62.11,1.25.2,1.88.29,1.23.16,2.47.28,3.7.42C152.28,302,152.32,301.87,152.21,301.85Z" style="fill: rgb(38, 50, 56); transform-origin: 130.196px 299.83px;" id="elqtn8ehn0fb" class="animable"></path><path d="M142.84,307.87h0c0-.16-.05-.31-.07-.46s-.14-.39-.17-.58h0c-.28-1.18-.51-2.38-.72-3.58,0-.08-.15-.06-.15,0a14.52,14.52,0,0,0,1,4.63s.1,0,.09,0Z" style="fill: rgb(38, 50, 56); transform-origin: 142.285px 305.539px;" id="elo22f18033o" class="animable"></path><path d="M131.68,307.58a.08.08,0,0,0-.08-.07c-.38-1.57-.74-3.14-1.06-4.73-.17-.83-.34-1.66-.5-2.49-.09-.45-.17-.9-.25-1.35a3.74,3.74,0,0,0-.29-1.15.08.08,0,0,0-.15,0,7.74,7.74,0,0,0,.34,2.38c.16.87.33,1.73.52,2.59.39,1.75.82,3.5,1.32,5.22,0,.09.18.07.17,0S131.69,307.71,131.68,307.58Z" style="fill: rgb(38, 50, 56); transform-origin: 130.525px 302.889px;" id="elmj9vekibmb" class="animable"></path><path d="M151,296.75c-2.44-.34-4.87-.69-7.31-1-.11,0-.15.15,0,.16,2.43.36,4.87.66,7.31,1C151.06,296.92,151.1,296.76,151,296.75Z" style="fill: rgb(38, 50, 56); transform-origin: 147.326px 296.33px;" id="el2t1ubtww1z1" class="animable"></path><path d="M109.08,247.85s-8.16-35.8,30.31-50.29C139.39,197.56,150.05,244.69,109.08,247.85Z" style="fill: #FFFFFF; transform-origin: 124.497px 222.705px;" id="elkfyzm9adr5b" class="animable"></path><path d="M117.38,227.55l.42-.26,2.17-1.21,4.46-2.5c2.94-1.64,5.84-3.35,8.79-5,.1,0,0-.19-.08-.14-3,1.61-6,3.11-9,4.69l-4.41,2.33-1.8,1c1.28-2.43,2.66-4.82,4.16-7.12,2-3.06,4.21-6,6.51-8.84.1-.13-.07-.3-.19-.18a61.44,61.44,0,0,0-8.9,10.9c0-.12,0-.25,0-.37,0-.89.06-1.78.08-2.67,0-1.75-.06-3.5,0-5.25,0-.1-.16-.1-.16,0-.08,1.72-.28,3.43-.38,5.15,0,.86-.09,1.72-.11,2.57,0,.47-.06,1,0,1.51q-1.2,1.89-2.28,3.83a67.12,67.12,0,0,0-3.43,7.21c0-.89-.1-1.78-.15-2.67-.11-2-.35-3.91-.44-5.88,0-.1-.16-.1-.16,0,0,2,0,3.92,0,5.88,0,1,.06,2,.13,2.94l.06,1.1a65.34,65.34,0,0,0-2.9,9.83,106.44,106.44,0,0,0-1.44,10.82s0,0,.05,0a57.14,57.14,0,0,1,2-9.65c.47-1.69,1-3.37,1.52-5,1.6-.76,3.13-1.7,4.68-2.56s3.22-1.75,4.82-2.64c3.21-1.76,6.42-3.55,9.73-5.1.09,0,0-.19-.09-.14-3.35,1.52-6.73,3-10,4.61-1.64.83-3.26,1.71-4.86,2.61-1.33.75-2.7,1.5-4,2.37.37-1.11.76-2.22,1.19-3.32A95.64,95.64,0,0,1,117.38,227.55Z" style="fill: rgb(38, 50, 56); transform-origin: 120.796px 232.75px;" id="els414da60o0g" class="animable"></path><path d="M114.14,219.36c0-.11-.17-.1-.16,0,.13,2,.2,4.09.42,6.12a.09.09,0,1,0,.18,0C114.51,223.43,114.29,221.4,114.14,219.36Z" style="fill: rgb(38, 50, 56); transform-origin: 114.28px 222.426px;" id="elt92gls566p" class="animable"></path><path d="M132.58,226.2c-2.4,1-4.83,1.89-7.23,2.89-.07,0,0,.14,0,.11,2.44-.91,4.83-1.9,7.25-2.85C132.73,226.32,132.68,226.16,132.58,226.2Z" style="fill: rgb(38, 50, 56); transform-origin: 128.999px 227.699px;" id="el82qhm2mqlhq" class="animable"></path><path d="M136.24,209.68a65.09,65.09,0,0,0-6.84,3.67.11.11,0,0,0,.11.18c2.23-1.31,4.5-2.56,6.82-3.71C136.42,209.78,136.33,209.64,136.24,209.68Z" style="fill: rgb(38, 50, 56); transform-origin: 132.869px 211.603px;" id="el15p6q9j3dyb" class="animable"></path><rect x="80.18" y="325.28" width="55.48" height="58.48" style="fill: rgb(69, 90, 100); transform-origin: 107.92px 354.52px;" id="elk01dnedy8ym" class="animable"></rect><rect x="76.36" y="345.97" width="2.84" height="120.17" style="fill: rgb(38, 50, 56); transform-origin: 77.78px 406.055px;" id="eltqq3diwmrl" class="animable"></rect><rect x="136.34" y="345.97" width="2.84" height="120.17" style="fill: rgb(38, 50, 56); transform-origin: 137.76px 406.055px;" id="el3uuwffe8mxc" class="animable"></rect><rect x="107.86" y="345.97" width="2.84" height="120.17" style="fill: rgb(38, 50, 56); transform-origin: 109.28px 406.055px;" id="el3lbklgyv52n" class="animable"></rect><rect x="77.78" y="380.01" width="59.98" height="8.1" style="fill: rgb(38, 50, 56); transform-origin: 107.77px 384.06px;" id="elg7is8lxzf9" class="animable"></rect></g><g id="freepik--Arrow--inject-88" class="animable" style="transform-origin: 339.17px 251.454px;"><path d="M129.52,465.72c33.34-5.56,120.16-23.7,144.81-35.79,136.7-65.88,202-294,202.81-296.23H587.2c-.82,2.18-13.79,39.52-68.69,143.76-33.94,61.94-83.06,103.23-141,137.15C278,472.82,129.52,465.72,129.52,465.72Z" style="fill: #FFFFFF; transform-origin: 358.36px 299.847px;" id="elgzw18b7w0s" class="animable"></path><g id="eltji6bpioaps" class=""><g style="opacity: 0.1; transform-origin: 358.36px 299.847px;" class="animable" id="elt9td572lkye"><path d="M129.52,465.72c33.34-5.56,120.16-23.7,144.81-35.79,136.7-65.88,202-294,202.81-296.23H587.2c-.82,2.18-13.79,39.52-68.69,143.76-33.94,61.94-83.06,103.23-141,137.15C278,472.82,129.52,465.72,129.52,465.72Z" id="elbe0bx15em8s" class="animable" style="transform-origin: 358.36px 299.847px;"></path></g></g><path d="M451.57,122.27l25.57,11.43c-.7,1.86-34.77,177.4-139,261.66C265,454.48,218.19,468.36,59.29,466V435.12c89.67,0,153.64-2.9,212-33.35C403,333.06,451.37,122.78,451.57,122.27Z" style="fill: #FFFFFF; transform-origin: 268.215px 294.259px;" id="elk2c2o1dejdi" class="animable"></path><polygon points="451.57 122.27 570.19 122.27 587.2 133.7 477.14 133.7 451.57 122.27" style="fill: #FFFFFF; transform-origin: 519.385px 127.985px;" id="elqurn87050d" class="animable"></polygon><polygon points="541.92 48.77 619.05 146.3 437.27 145.81 541.92 48.77" style="fill: #FFFFFF; transform-origin: 528.16px 97.535px;" id="elahvcu9sc1iu" class="animable"></polygon><g id="ela8u12z4y7z" class=""><g style="opacity: 0.1; transform-origin: 528.16px 97.535px;" class="animable" id="el33cnf5defd"><polygon points="541.92 48.77 619.05 146.3 437.27 145.81 541.92 48.77" id="eldwwege05hw9" class="animable" style="transform-origin: 528.16px 97.535px;"></polygon></g></g><polygon points="437.27 145.81 410.83 133.7 515.48 36.66 541.92 48.77 437.27 145.81" style="fill: #FFFFFF; transform-origin: 476.375px 91.235px;" id="el57doido087p" class="animable"></polygon></g><g id="freepik--speech-bubble--inject-88" class="animable animator-hidden" style="transform-origin: 605.874px 119.636px;"><path d="M632.34,122.17a24.08,24.08,0,0,1-40.25,15.23L580,139.17l6-10.42a24.09,24.09,0,1,1,46.27-6.58Z" style="fill: rgb(255, 255, 255); transform-origin: 606.2px 119.664px;" id="elyna7j10pna" class="animable"></path><path d="M632.34,122.17a24.28,24.28,0,0,1-4.86,12.21,28.93,28.93,0,0,1-2.19,2.51,26,26,0,0,1-2.54,2.15,24.24,24.24,0,0,1-12.3,4.78,23.29,23.29,0,0,1-3.34.07,22.13,22.13,0,0,1-3.34-.35,24.33,24.33,0,0,1-11.91-5.88l.28.09-12,1.84-.87.14.44-.77,6-10.44,0,.41a24.37,24.37,0,0,1,30.2-32.35,24.63,24.63,0,0,1,9.29,5.69A24.24,24.24,0,0,1,632.34,122.17Zm0,0A23.83,23.83,0,0,0,605,96.1a23.6,23.6,0,0,0-9.95,3.93,24.86,24.86,0,0,0-7.21,7.86,23.72,23.72,0,0,0-3.05,10.19,24,24,0,0,0,1.69,10.5l.09.21-.11.2-6.07,10.4-.43-.64L592,137.06l.17,0,.12.11a23.71,23.71,0,0,0,11.53,5.94,21.17,21.17,0,0,0,3.27.4,24.23,24.23,0,0,0,3.3,0,23.64,23.64,0,0,0,6.43-1.41,22.69,22.69,0,0,0,5.81-3.14,26.91,26.91,0,0,0,2.54-2.12,25.83,25.83,0,0,0,2.19-2.49A24.22,24.22,0,0,0,632.34,122.17Z" style="fill: rgb(38, 50, 56); transform-origin: 605.874px 119.636px;" id="elsnvmy1ts9f8" class="animable"></path><polygon points="604.97 133.42 594.68 123.01 598.13 119.59 604.14 125.68 616.63 106.1 620.73 108.72 604.97 133.42" style="fill: #FFFFFF; transform-origin: 607.705px 119.76px;" id="eln6ad805z35" class="animable"></polygon></g><g id="freepik--Character--inject-88" class="animable animator-hidden" style="transform-origin: 579.253px 274.48px;"><path d="M468.73,466.44c2.26.73,66.65-.1,69.08-1.69.93-.59,1.36-10,1.55-21.34v-.36c0-2.34-6-41.6-6-41.6l-43.07.43,7.47,41.25,0,.7s-24.5,11.35-27,13.38S466.47,465.72,468.73,466.44Z" style="fill: rgb(173, 99, 89); transform-origin: 503.528px 434.079px;" id="elmq8o09eg41m" class="animable"></path><path d="M539.36,443.05v.36c-.19,11.35-.62,20.74-1.55,21.34-2.43,1.58-66.82,2.42-69.07,1.69s-.36-7.21,2.1-9.23,27-13.37,27-13.37l0-.72-1.13-6.22h41.95C539.09,440.2,539.37,442.54,539.36,443.05Z" style="fill: rgb(235, 235, 235); transform-origin: 503.547px 451.803px;" id="elj8fuvcasd3i" class="animable"></path><path d="M468.73,466.44c1.16.37,18.65.33,35.75,0,3.44-.07,6.86-.15,10.12-.24,12.19-.33,22.27-.84,23.2-1.45s1.35-9.71,1.54-20.86c0-.16,0-.31,0-.47s0-.25,0-.37h-.05l-41.5.08,0,.71s-24.5,11.34-27,13.37S466.47,465.72,468.73,466.44Z" style="fill: #FFFFFF; transform-origin: 503.521px 454.876px;" id="elwj5cv1vsin" class="animable"></path><path d="M469.43,463.94c10.85-.41,54.65-1,65.41-.61.09,0,.09.07,0,.07-10.75.64-54.55.9-65.41.71C469.2,464.11,469.2,463.94,469.43,463.94Z" style="fill: rgb(38, 50, 56); transform-origin: 502.082px 463.687px;" id="elv8qjzzrf7kn" class="animable"></path><path d="M493.19,443.31c4.26-.86,9.49-.27,12.8,2.73.13.12,0,.3-.18.26a59.26,59.26,0,0,0-12.6-2.45A.27.27,0,0,1,493.19,443.31Z" style="fill: rgb(38, 50, 56); transform-origin: 499.488px 444.628px;" id="elyvt605vy2fg" class="animable"></path><path d="M490.13,445.2c4.26-.85,9.5-.26,12.8,2.74.13.12,0,.3-.18.25a60.56,60.56,0,0,0-12.59-2.45A.27.27,0,0,1,490.13,445.2Z" style="fill: rgb(38, 50, 56); transform-origin: 496.429px 446.522px;" id="elgxqd4xage0l" class="animable"></path><path d="M487.07,447.1c4.26-.85,9.5-.26,12.8,2.74.13.11,0,.29-.18.25a60.56,60.56,0,0,0-12.59-2.45A.27.27,0,0,1,487.07,447.1Z" style="fill: rgb(38, 50, 56); transform-origin: 493.37px 448.421px;" id="elm05zr5cepe" class="animable"></path><path d="M493.19,443h47.53s-14.65-96-14.28-97.88c.18-1,66.57-100.73,66.57-100.73H543.54s-55.8,71.35-62.08,89.32C476.9,346.81,493.19,443,493.19,443Z" style="fill: rgb(38, 50, 56); transform-origin: 536.832px 343.695px;" id="elds6yek4xoc" class="animable"></path><path d="M520.49,341.45c.69-2.78,2.28-5.24,3.74-7.67,3.31-5.47,60.35-84.52,61.15-85.82.06-.1.22-.05.17,0-2.26,4.75-58.62,81.79-62.12,89.12-1.33,2.8-2.48,5.39-2.42,8.53a90.2,90.2,0,0,0,1,9.41q.62,4.73,1.25,9.44,1.28,9.45,2.65,18.87,2.77,18.93,5.75,37.85c.25,1.57.51,3.14.77,4.7,0,.15-.2.21-.23.06-2.26-12.61-4.46-25.22-6.37-37.89s-3.64-25.36-5.32-38.07A22.93,22.93,0,0,1,520.49,341.45Z" style="fill: rgb(69, 90, 100); transform-origin: 552.83px 336.965px;" id="eli4nzx4kliu" class="animable"></path><path d="M535.11,431.74c-7,0-5-.13-11.89-.05-3.4,0-25.71.3-28.87,1-.07,0-.07.15,0,.16,3.19.54,25.49-.17,28.89-.29,6.93-.23,4.94-.25,11.87-.57C535.24,432,535.24,431.74,535.11,431.74Z" style="fill: rgb(55, 71, 79); transform-origin: 514.753px 432.357px;" id="el2lkxz8wfpox" class="animable"></path><path d="M689.83,465.82c-2.25.77-66.64,1.11-69.1-.43-.94-.58-1.54-10-1.93-21.31,0-.12,0-.24,0-.36-.09-2.33-16.15-41.18-16.15-41.18l42.09-.34L660.33,443l0,.71s24.71,10.89,27.24,12.87S692.07,465.06,689.83,465.82Z" style="fill: rgb(173, 99, 89); transform-origin: 646.729px 434.336px;" id="elqd1d9o0r3er" class="animable"></path><path d="M689.83,465.82c-2.25.77-66.64,1.11-69.1-.43-.94-.58-1.54-10-1.93-21.31,0-.12,0-.24,0-.36s-3.11-7.79-3.12-8.13l41.55-.45,3.11,7.9,0,.71s24.71,10.89,27.24,12.87S692.07,465.06,689.83,465.82Z" style="fill: rgb(235, 235, 235); transform-origin: 653.245px 450.806px;" id="elfm204l5zeoi" class="animable"></path><path d="M689.83,465.82c-2.25.77-66.64,1.11-69.1-.43-.94-.58-1.54-10-1.93-21.31,0-.12,0-.24,0-.36l41.54-.68,0,.71s24.71,10.89,27.24,12.87S692.07,465.06,689.83,465.82Z" style="fill: #FFFFFF; transform-origin: 654.805px 454.756px;" id="elb7xs646gxfn" class="animable"></path><path d="M689.09,463.33c-10.86-.21-54.67,0-65.41.59-.09,0-.09.06,0,.07,10.75.44,54.56-.1,65.41-.49C689.32,463.5,689.32,463.33,689.09,463.33Z" style="fill: rgb(38, 50, 56); transform-origin: 656.438px 463.702px;" id="elkr02ur9qnvb" class="animable"></path><path d="M665,443.13c-4.27-.77-9.49-.09-12.74,3-.13.12,0,.3.18.26a59.74,59.74,0,0,1,12.55-2.69A.27.27,0,0,0,665,443.13Z" style="fill: rgb(38, 50, 56); transform-origin: 658.744px 444.617px;" id="elyfd9uodje79" class="animable"></path><path d="M668.05,445c-4.28-.78-9.5-.1-12.75,3-.13.11.05.29.18.25A59.72,59.72,0,0,1,668,445.52.27.27,0,0,0,668.05,445Z" style="fill: rgb(38, 50, 56); transform-origin: 661.741px 446.48px;" id="el7oav545lfm5" class="animable"></path><path d="M671.14,446.82c-4.28-.78-9.5-.09-12.75,3-.12.12.05.29.19.25a59.49,59.49,0,0,1,12.54-2.68A.27.27,0,0,0,671.14,446.82Z" style="fill: rgb(38, 50, 56); transform-origin: 664.882px 448.301px;" id="elczkf0hnm96" class="animable"></path><path d="M548.74,244.43s5.93,36.14,6.33,37.3c0,0,2.21,1,6.18,2.88l48,158.27,53.16.19L599.34,244.43Z" style="fill: rgb(38, 50, 56); transform-origin: 605.575px 343.75px;" id="elp99w1xk599p" class="animable"></path><path d="M553.14,280.61a86.21,86.21,0,0,1,13.26,6.94.16.16,0,0,1-.14.28c-4.47-2.18-9-4.27-13.39-6.69A.3.3,0,0,1,553.14,280.61Z" style="fill: rgb(69, 90, 100); transform-origin: 559.6px 284.214px;" id="el2gj60c4ethh" class="animable"></path><path d="M554.85,259.91c.73,4.32,1.13,8.71,1.62,13.07l.36,3.14a6,6,0,0,0,.75,2.75c.94,1.46,2.62,2.14,4.15,2.81.17.07.1.35-.09.29a10.06,10.06,0,0,1-4.41-2.33c-1.39-1.47-1.35-3.7-1.56-5.59a121.41,121.41,0,0,1-1-14.12C554.65,259.82,554.83,259.79,554.85,259.91Z" style="fill: rgb(69, 90, 100); transform-origin: 558.247px 270.906px;" id="eli372ar74jol" class="animable"></path><path d="M560.11,261.23c.15,3.12.5,6.24.76,9.34.13,1.54.24,3.07.33,4.61s.28,3.16.23,4.73c0,.1-.17.13-.19,0-.26-1.48-.29-3-.42-4.52s-.23-3.15-.32-4.73c-.18-3.14-.26-6.31-.55-9.45C560,261.13,560.1,261.14,560.11,261.23Z" style="fill: rgb(69, 90, 100); transform-origin: 560.694px 270.576px;" id="elg6xmo2oejfr" class="animable"></path><path d="M566.9,291.25c3.68,9,43,137.6,43.43,138.72,0,.09-.11.14-.15.06C604.92,419.74,571.36,303.7,568,294.66l-1.26-3.36C566.72,291.22,566.86,291.16,566.9,291.25Z" style="fill: rgb(69, 90, 100); transform-origin: 588.534px 360.638px;" id="elqkw26bej2zp" class="animable"></path><path d="M608.87,434c1.54-.21,3.13-.21,4.68-.32s3.11-.13,4.67-.17c3.12-.07,6.24-.11,9.36-.15q9.28-.1,18.58-.1c3.53,0,7.07.19,10.6.27a.09.09,0,1,1,0,.17c-3.11.13-6.23.32-9.35.44s-6.23.13-9.35.18c-6.29.09-12.57.19-18.85.17-1.75,0-3.49,0-5.24-.06s-3.44,0-5.12-.25C608.74,434.14,608.78,434,608.87,434Z" style="fill: rgb(69, 90, 100); transform-origin: 632.831px 433.876px;" id="elhvoomqyqgq" class="animable"></path><path d="M566.44,191.13c-9.91-8.34-24.29-27.84-26.83-35.27-3.28-9.57-7.75-42-4.25-45.45,1.94-1.9,24.66,3,25.77,5.72s-.6,30.76-.41,32.92,9,23.15,14.11,33.23C580.79,194.07,572.9,196.57,566.44,191.13Z" style="fill: rgb(173, 99, 89); transform-origin: 555.514px 151.928px;" id="elg9ur3jpwehn" class="animable"></path><path d="M534.47,120a9.52,9.52,0,0,1-.54-5.89c.87-3.14,3.33-6.35,2.88-8.33-.71-3.15-3.26-8.31-2-9.32,2.57-2.1,5.42-.28,8.39,5.64.77,1.54,1.79,5.35,2.88,5.63,1.9.5,3-2.81,3.47-5.89.93-6,1.07-14.78,5.13-15.59,1.54-.3,2.07,1.93,2.17,4.64.47-3.88,1.38-7.7,3.07-8.11A1.75,1.75,0,0,1,562,84a2.33,2.33,0,0,1,1.92-1.74c1.56-.13,2.52,1.33,3.1,3.32a1.28,1.28,0,0,1,1.12-.35c4.14.42,4.7,15.59,2.94,19.24a87.89,87.89,0,0,1-13.76,19.74C551.6,125.46,534.47,120,534.47,120Z" style="fill: rgb(173, 99, 89); transform-origin: 552.856px 103.324px;" id="elnscuovazbh" class="animable"></path><path d="M554.75,108.26a18.92,18.92,0,0,0,2.56-7.9c.27-3.28-.35-6.56-.41-9.83,0-.09-.14-.08-.14,0,.11,1.6,0,3.22.09,4.82s.12,3.15,0,4.72a18.76,18.76,0,0,1-2.2,8.16A0,0,0,0,0,554.75,108.26Z" style="fill: rgb(38, 50, 56); transform-origin: 556.014px 99.3631px;" id="elqrx0nwj117r" class="animable"></path><path d="M559.94,109.69a47,47,0,0,0,3.26-9c.73-3.4.25-6.91-.17-10.33q-.37-3.07-.89-6.14c0-.08-.15-.08-.14,0,.46,3.49.82,7,1.07,10.52a24.7,24.7,0,0,1-1.16,9.66c-.58,1.78-1.3,3.51-2,5.23C559.88,109.7,559.93,109.72,559.94,109.69Z" style="fill: rgb(38, 50, 56); transform-origin: 561.739px 96.9318px;" id="el9yt3y046jvc" class="animable"></path><path d="M565.35,109.87c1.39-2.69,2.62-5,3-8.07a42.56,42.56,0,0,0-.31-10.58c-.26-1.89-.58-3.76-.93-5.64,0-.07-.15,0-.14,0a97.93,97.93,0,0,1,1.26,12.68,19.63,19.63,0,0,1-.63,6,36.42,36.42,0,0,1-2.31,5.56S565.34,109.88,565.35,109.87Z" style="fill: rgb(38, 50, 56); transform-origin: 566.917px 97.71px;" id="elag9xr4043uf" class="animable"></path><path d="M562.46,125.59l-29.62,3.76s4.28,23.31,6.36,28.81,20.31,30.19,27.83,35,13,1,9-10S562.91,151.26,562.43,149,562.46,125.59,562.46,125.59Z" style="fill: rgb(69, 90, 100); transform-origin: 555.108px 160.398px;" id="eldb8mdr7wyt7" class="animable"></path><path d="M571.51,171.63,552,177.12c-2.46-3.13-4.82-6.32-6.83-9.2l22.23-6.26C568.72,164.82,570.14,168.27,571.51,171.63Z" style="fill: rgb(55, 71, 79); transform-origin: 558.34px 169.39px;" id="elieaaedgvth9" class="animable"></path><path d="M560.54,133.34c-4,.68-20.75,2.89-24.4,3.13-.25,0-.32-.14-.06-.19a225.87,225.87,0,0,1,24.43-3.1C560.61,133.17,560.65,133.32,560.54,133.34Z" style="fill: rgb(38, 50, 56); transform-origin: 548.261px 134.825px;" id="el66qwe0jpb13" class="animable"></path><g id="eloah7njeipxn"><path d="M567,193.13c-5.38-3.42-16.25-17-22.76-26.53l28,6.82c1.46,3.59,2.8,7,3.82,9.75C580.07,194.1,574.54,197.91,567,193.13Z" style="opacity: 0.1; transform-origin: 560.822px 180.879px;" class="animable" id="el4wmqkg7vxsg"></path></g><path d="M603.36,258.25s-70.39-1.31-70.52-1.45,9.38-61,18.78-78c3.53-6.4,15.82-5.93,20.43-2.34C583.58,185.43,603.55,254.16,603.36,258.25Z" style="fill: rgb(69, 90, 100); transform-origin: 568.1px 216.05px;" id="el37h942gtak9" class="animable"></path><path d="M601,248l-66.57-1c.38-2.21.82-4.71,1.31-7.42l63.13.91C599.68,243.27,600.4,245.79,601,248Z" style="fill: rgb(55, 71, 79); transform-origin: 567.715px 243.79px;" id="el1hut26kgim6h" class="animable"></path><path d="M602.25,252.76l-68.6-1c.12-.72.25-1.52.4-2.37l67.59,1C601.86,251.23,602.07,252,602.25,252.76Z" style="fill: rgb(55, 71, 79); transform-origin: 567.95px 251.075px;" id="el0efhptiun8oe" class="animable"></path><path d="M554.26,184.11c3.08,1,12.17-4,14.37-8.81.15-.33-.58-3.65-1.28-7.73-.41-2.47-.82-5.24-1-7.79l-15.71,5.05a40.89,40.89,0,0,1,2.26,9.68,5.16,5.16,0,0,1,0,1.05c0,.05,0,.11,0,.18C552.67,177.75,550.71,183,554.26,184.11Z" style="fill: rgb(173, 99, 89); transform-origin: 559.645px 172.009px;" id="ele7yu1jsniup" class="animable"></path><path d="M565.54,160c-.3,3.49-2,14.8-11,15.67a9.36,9.36,0,0,1-1.66,0c0-.07,0-.13,0-.18a6,6,0,0,0,0-1.05,40.43,40.43,0,0,0-2.25-9.67Z" style="fill: rgb(38, 50, 56); transform-origin: 558.085px 167.853px;" id="elammk4powxo" class="animable"></path><path d="M572.55,146.53c.19,5.95-7,21-11.89,23.47-7,3.59-16.44,1.55-18.94-6.43-2.43-7.74,7.32-27.19,12.55-29.22C562,131.37,572.29,137.76,572.55,146.53Z" style="fill: rgb(173, 99, 89); transform-origin: 556.946px 152.658px;" id="elypujwp7pej" class="animable"></path><g id="eltxnw4tv7yp"><path d="M567.78,161c-2.25,4.24-4.92,7.93-7.11,9-7.06,3.59-16.45,1.55-18.95-6.43-.87-2.78-.18-7.07,1.32-11.53.85,3.13,5.16,2.08,5.16,2.08l1.82.71c.86,3.71,6.54,5,10,4.09,2.51-.63,5.64-4.95,5.64-4.95Z" style="fill: rgb(38, 50, 56); opacity: 0.3; transform-origin: 554.559px 161.873px;" class="animable" id="el7gyb4ywjfs7"></path></g><path d="M568.44,159.57c-2.51-.14-3-2.53-3.23-4.15-.44-3.38,3.44-8.76,3-12.67a5.13,5.13,0,0,0-4.44-4.59c-2.07-.08-5.34,1.57-6.69,1s-.66-3.72-1.63-4c-2.12-.73-6.15,3.92-7.33,6.13,0,0,3.83-10.59,14.34-8,10.25,2.47,11,10.16,10.82,13.45C573,152.94,568.44,159.57,568.44,159.57Z" style="fill: rgb(38, 50, 56); transform-origin: 560.711px 146.226px;" id="elvjfen0f4rb" class="animable"></path><path d="M554.11,151.78s0,.09,0,.13c-.53,1-1,2.21-.23,3,0,0,0,.07,0,.05C552.84,154.25,553.44,152.63,554.11,151.78Z" style="fill: rgb(38, 50, 56); transform-origin: 553.714px 153.372px;" id="el9epc6ohk7pr" class="animable"></path><path d="M555.53,151.17c1.68.68.19,4-1.36,3.36S554.12,150.6,555.53,151.17Z" style="fill: rgb(38, 50, 56); transform-origin: 554.892px 152.858px;" id="elxxh9xquy3w" class="animable"></path><path d="M548.45,149s-.11,0-.12.06c-.43,1-1.1,2.16-2.18,2.08,0,0,0,0,0,.06C547.34,151.56,548.21,150.07,548.45,149Z" style="fill: rgb(38, 50, 56); transform-origin: 547.3px 150.127px;" id="elvqe6c084mfo" class="animable"></path><path d="M548,147.53c-1.6-.86-3.21,2.39-1.73,3.19S549.35,148.25,548,147.53Z" style="fill: rgb(38, 50, 56); transform-origin: 547.097px 149.116px;" id="el6x5y8l0x2x9" class="animable"></path><path d="M558.47,149a14,14,0,0,1-1.46-.31,2.38,2.38,0,0,1-1.43-.59.78.78,0,0,1,0-.94,1.91,1.91,0,0,1,1.88-.45,2.76,2.76,0,0,1,1.75,1A.82.82,0,0,1,558.47,149Z" style="fill: rgb(38, 50, 56); transform-origin: 557.391px 147.815px;" id="elr3z5mijky39" class="animable"></path><path d="M547.38,145.34a13.67,13.67,0,0,0,1.38.55,2.4,2.4,0,0,0,1.52.3.77.77,0,0,0,.52-.78,1.89,1.89,0,0,0-1.31-1.41,2.75,2.75,0,0,0-2-.15A.81.81,0,0,0,547.38,145.34Z" style="fill: rgb(38, 50, 56); transform-origin: 548.87px 144.97px;" id="el24xv2cq3397" class="animable"></path><path d="M551.72,160.92a1.67,1.67,0,0,1-1.13.22,3,3,0,0,1-1-.75,0,0,0,0,0-.07,0,1.52,1.52,0,0,0,1.06,1.14,1.18,1.18,0,0,0,1.21-.55S551.77,160.91,551.72,160.92Z" style="fill: rgb(38, 50, 56); transform-origin: 550.655px 160.969px;" id="els7vrjskdq7n" class="animable"></path><path d="M552,157.37a3.85,3.85,0,0,1-3,.51,4.69,4.69,0,0,1-1.28-.51,1.71,1.71,0,0,1-.23-.13l-.21-.14a.28.28,0,0,1-.1-.32h0l.06-.1h0l0-.09c.34-.8,1-2,1-2-.35,0-2.12,0-1.91-.39a57.26,57.26,0,0,1,6.09-10,.11.11,0,0,1,.18.11c-1.55,3.26-3.65,6.23-5.25,9.48a6.68,6.68,0,0,1,1.87.24c.1.08-1.22,2.23-1.34,2.61a.06.06,0,0,0,0,0,5.3,5.3,0,0,0,4.12.49C552.07,157.21,552.12,157.31,552,157.37Z" style="fill: rgb(38, 50, 56); transform-origin: 549.458px 151.08px;" id="eldm2e9wbyc0q" class="animable"></path><path d="M548.35,157.18a4.54,4.54,0,0,0,1.09,2,2,2,0,0,0,1.1.58c.91.15,1.27-.59,1.41-1.3a4.5,4.5,0,0,0,.07-1.15A5.9,5.9,0,0,1,548.35,157.18Z" style="fill: rgb(38, 50, 56); transform-origin: 550.19px 158.48px;" id="elypgfftys9m" class="animable"></path><path d="M549.44,159.21a2,2,0,0,0,1.1.58c.91.15,1.27-.59,1.41-1.3A2.1,2.1,0,0,0,549.44,159.21Z" style="fill: rgb(255, 156, 189); transform-origin: 550.695px 159.07px;" id="eldos2wjai2dq" class="animable"></path><path d="M552.64,157.34a4.68,4.68,0,0,1-1.2-6.5h0a4.67,4.67,0,1,1,2.23,7A5,5,0,0,1,552.64,157.34Zm-.69-6.15a4.05,4.05,0,1,0,5.63-1,3.59,3.59,0,0,0-.89-.46A4.06,4.06,0,0,0,552,151.19Z" style="fill: rgb(38, 50, 56); transform-origin: 555.296px 153.465px;" id="elsnqj6w434j" class="animable"></path><path d="M543.86,152.84c-1.71-.87-2.15-3.44-1-5.74a5.58,5.58,0,0,1,2.36-2.46,2.9,2.9,0,0,1,4.44,2.25,5.57,5.57,0,0,1-.6,3.36c-1.1,2.18-3.25,3.33-4.93,2.72Zm1.65-7.65a5,5,0,0,0-2.08,2.19c-1,2-.69,4.19.71,4.91s3.37-.33,4.38-2.32a5,5,0,0,0,.54-3,2.5,2.5,0,0,0-1.25-1.92l-.22-.1A2.59,2.59,0,0,0,545.51,145.19Z" style="fill: rgb(38, 50, 56); transform-origin: 545.965px 148.663px;" id="eldjh7ioipri" class="animable"></path><path d="M551.33,151.39l.58-.24c-.36-.86-1.46-2.31-3-1.74l.21.59C550.5,149.48,551.3,151.31,551.33,151.39Z" style="fill: rgb(38, 50, 56); transform-origin: 550.41px 150.335px;" id="el1ds2w3lqrwo" class="animable"></path><path d="M569.35,161.89H570c0-.29-.06-2.87-1.2-3.7s-8.89-3.87-9.22-4l-.23.58c2.25.89,8.26,3.32,9.09,3.92S569.35,161.18,569.35,161.89Z" style="fill: rgb(38, 50, 56); transform-origin: 564.675px 158.04px;" id="elneub62a1j28" class="animable"></path><path d="M564.61,156.47s5.06-4.05,7-2.1-2.91,8.55-5.92,8.77a2.88,2.88,0,0,1-3.26-2.58Z" style="fill: rgb(173, 99, 89); transform-origin: 567.243px 158.503px;" id="el3ga57j9qwje" class="animable"></path><path d="M570.17,156.23s0,.07,0,.08c-2.13.21-3.65,1.68-4.89,3.3a1.59,1.59,0,0,1,2.4.26s0,.11-.08.08a1.77,1.77,0,0,0-2,.05,8.32,8.32,0,0,0-1.34,1.25c-.14.14-.42,0-.3-.22l0,0C564.61,158.55,567.49,155.71,570.17,156.23Z" style="fill: rgb(38, 50, 56); transform-origin: 567.05px 158.737px;" id="elusvjcsfj1yp" class="animable"></path><path d="M556.79,195.74c-13.67-2.6-40.34-14.24-44.5-17.28-8.72-6.36-26.54-37.64-25-42.67.83-2.77,24.58-3.78,27-1.87s13,25.36,14.35,27.27,28.21,19.87,34.12,25C573.4,195.47,565.69,197.44,556.79,195.74Z" style="fill: rgb(173, 99, 89); transform-origin: 527.56px 164.615px;" id="eluq756ivcizk" class="animable"></path><path d="M512.65,142.57s5-9,8-15c1.66-3.36,4-9.39,4.08-12.42.14-4.53-2.2-23.57-6.83-23.1-4.19.42-.11,16.52-.11,16.52s-2.68-16.61-7.64-15.17,2.09,19,2.09,19-3.14-17-8-14.72c-3.68,1.73,1.8,18,1.8,18s-2.8-14.6-6.67-13c-4.27,1.78-.15,17.13-.15,17.13-9.13,5.76-12.79,9.79-12,17C487.29,138,512.65,142.57,512.65,142.57Z" style="fill: rgb(173, 99, 89); transform-origin: 505.926px 117.306px;" id="elw7yfiprnqb" class="animable"></path><path d="M519.5,115.62c-.25-2-.48-4-.9-5.88s-.91-3.86-1.5-5.75a35.17,35.17,0,0,0-3-7.12c2,4.16,3.57,11.07,4,13s.94,3.84,1.36,5.77C519.44,115.69,519.5,115.67,519.5,115.62Z" style="fill: rgb(38, 50, 56); transform-origin: 516.8px 106.269px;" id="elg9ecr4b0vb9" class="animable"></path><path d="M512.54,117.26c-.42-2.49-.75-5-1.28-7.46s-1.39-5.89-2.08-8.31c-.06-.18-.35-.18-.3,0,.6,2.44,1.31,6,1.88,8.43s1.24,4.88,1.72,7.35C512.49,117.32,512.55,117.3,512.54,117.26Z" style="fill: rgb(38, 50, 56); transform-origin: 510.708px 109.327px;" id="eli3i9jl8c2vn" class="animable"></path><path d="M506.82,119.74A56,56,0,0,0,504,108.49c-.06-.18-.15-.06-.1.13,1,3.73,1.83,6.64,2.8,11.14C506.7,119.83,506.83,119.82,506.82,119.74Z" style="fill: rgb(38, 50, 56); transform-origin: 505.353px 114.104px;" id="elcd7oicq905" class="animable"></path><path d="M489.3,147.78l30.08-9.08s8.19,19.88,9.49,21.65,30.46,20.81,36.28,25.59,4.86,13.73-7.64,11.34c-10.78-2.06-40-14-45.46-17.65S489.3,147.78,489.3,147.78Z" style="fill: rgb(69, 90, 100); transform-origin: 528.943px 168.189px;" id="elkerka6ijxcq" class="animable"></path><path d="M551.26,176.08l-11.19,15.77c-3.42-1.27-6.93-2.64-10.28-4l12.64-17.8C545.3,172,548.35,174.08,551.26,176.08Z" style="fill: rgb(55, 71, 79); transform-origin: 540.525px 180.95px;" id="elds1u0sz623l" class="animable"></path><path d="M495.88,153.68c4.12-1.11,20.81-6.28,24.34-7.65.25-.09.25-.27,0-.2-12.43,3-20.37,6.39-24.36,7.69C495.74,153.55,495.78,153.71,495.88,153.68Z" style="fill: rgb(38, 50, 56); transform-origin: 508.097px 149.749px;" id="elbtepre2i5hd" class="animable"></path><path d="M541.59,192.39a74.54,74.54,0,0,1,14.32,4.77,74.54,74.54,0,0,1-14.32-4.77Z" style="fill: rgb(38, 50, 56); transform-origin: 548.75px 194.775px;" id="elp9okevx45y" class="animable"></path><path d="M550.79,195.51c1.09.6,2.59,1.34,3.62,2a4.89,4.89,0,0,1-3.62-2Z" style="fill: rgb(38, 50, 56); transform-origin: 552.6px 196.51px;" id="elpdfend8f4ad" class="animable"></path><path d="M565.15,185.94a28.48,28.48,0,0,1-7.56-5.5,28.42,28.42,0,0,1,7.56,5.5Z" style="fill: rgb(38, 50, 56); transform-origin: 561.37px 183.19px;" id="elaqpiq0erj6g" class="animable"></path></g><defs>     <filter id="active" height="200%">         <feMorphology in="SourceAlpha" result="DILATED" operator="dilate" radius="2"></feMorphology>                <feFlood flood-color="#32DFEC" flood-opacity="1" result="PINK"></feFlood>        <feComposite in="PINK" in2="DILATED" operator="in" result="OUTLINE"></feComposite>        <feMerge>            <feMergeNode in="OUTLINE"></feMergeNode>            <feMergeNode in="SourceGraphic"></feMergeNode>        </feMerge>    </filter>    <filter id="hover" height="200%">        <feMorphology in="SourceAlpha" result="DILATED" operator="dilate" radius="2"></feMorphology>                <feFlood flood-color="#ff0000" flood-opacity="0.5" result="PINK"></feFlood>        <feComposite in="PINK" in2="DILATED" operator="in" result="OUTLINE"></feComposite>        <feMerge>            <feMergeNode in="OUTLINE"></feMergeNode>            <feMergeNode in="SourceGraphic"></feMergeNode>        </feMerge>            <feColorMatrix type="matrix" values="0   0   0   0   0                0   1   0   0   0                0   0   0   0   0                0   0   0   1   0 "></feColorMatrix>    </filter></defs></svg>