<svg class="animated" id="freepik_stories-rainbow-cake" xmlns="http://www.w3.org/2000/svg" viewBox="0 0 500 500" version="1.1" xmlns:xlink="http://www.w3.org/1999/xlink" xmlns:svgjs="http://svgjs.com/svgjs"><style>svg#freepik_stories-rainbow-cake:not(.animated) .animable {opacity: 0;}svg#freepik_stories-rainbow-cake.animated #freepik--Cake--inject-79 {animation: 1.5s Infinite  linear floating;animation-delay: 0s;}            @keyframes floating {                0% {                    opacity: 1;                    transform: translateY(0px);                }                50% {                    transform: translateY(-10px);                }                100% {                    opacity: 1;                    transform: translateY(0px);                }            }        .animator-hidden { display: none; }</style><g id="freepik--background-complete--inject-79" class="animable animator-hidden" style="transform-origin: 250px 247.24px;"><path d="M319.32,248l-123-1.17L159,246.62l-10.14,0-2.64,0c-.59,0-.9,0-.9.05a5.27,5.27,0,0,0,.9.06l2.64.06L159,247l37.29.2,123,.07c48,0,91.51.06,123,.29,15.74.11,28.48.26,37.28.43,4.4.08,7.82.17,10.14.25a18,18,0,0,1,3.53.27,19.45,19.45,0,0,1-3.53.22c-2.32.07-5.74.12-10.14.16-8.81.08-21.55.1-37.29,0C410.82,248.82,367.34,248.45,319.32,248Z" style="fill: rgb(245, 245, 245); transform-origin: 319.28px 247.789px;" id="els05rlv6egin" class="animable"></path><path d="M318.36,258.62,197,238.66l-36.8-5.87-10-1.52-2.61-.37c-.59-.07-.89-.1-.89-.09a4.49,4.49,0,0,0,.87.2l2.6.47,10,1.67,36.8,5.9,121.53,18.86c47.44,7.33,90.39,14,121.45,19.07,15.53,2.51,28.09,4.6,36.76,6.11,4.33.76,7.7,1.37,10,1.81a18.46,18.46,0,0,1,3.45.81,19.73,19.73,0,0,1-3.53-.32c-2.3-.28-5.69-.75-10-1.39-8.71-1.26-21.3-3.19-36.84-5.64C408.62,273.46,365.72,266.44,318.36,258.62Z" style="fill: rgb(245, 245, 245); transform-origin: 318.43px 258.259px;" id="el3nuczzxsemd" class="animable"></path><path d="M315.72,269,199.08,230.49,163.68,219,154,215.94l-2.52-.76a4.54,4.54,0,0,0-.87-.22,5.84,5.84,0,0,0,.83.33l2.49.86,9.6,3.2L199,230.87l117,37.44c45.67,14.58,87,27.85,116.88,37.63,14.93,4.89,27,8.9,35.32,11.74,4.16,1.42,7.38,2.54,9.56,3.33a18.5,18.5,0,0,1,3.27,1.33,18.69,18.69,0,0,1-3.43-.85c-2.23-.64-5.5-1.63-9.7-2.93-8.4-2.6-20.52-6.45-35.47-11.28C402.47,297.64,361.23,284.06,315.72,269Z" style="fill: rgb(245, 245, 245); transform-origin: 315.82px 268.65px;" id="elt2i8x9on1rr" class="animable"></path><path d="M311.45,278.83l-109-56.06L169.3,205.94l-9-4.51-2.37-1.15a7,7,0,0,0-.82-.36,5.06,5.06,0,0,0,.77.46l2.32,1.23,9,4.65,33.11,16.85L311.78,278.2c42.77,21.46,81.47,41,109.4,55.24,14,7.14,25.24,13,33,17.06,3.88,2,6.88,3.65,8.9,4.76a18.8,18.8,0,0,1,3,1.82,18.4,18.4,0,0,1-3.26-1.38c-2.09-1-5.16-2.46-9.1-4.39-7.88-3.87-19.23-9.55-33.23-16.63C392.54,320.52,354,300.74,311.45,278.83Z" style="fill: rgb(245, 245, 245); transform-origin: 311.595px 278.5px;" id="el4ar4d5hgjs2" class="animable"></path><path d="M305.66,287.88l-98.77-72.13-30-21.71-8.21-5.85-2.16-1.49a5.51,5.51,0,0,0-.75-.48,5.29,5.29,0,0,0,.69.56l2.09,1.58,8.12,6,30,21.73,99.44,71.25c38.83,27.77,74,53,99.27,71.38,12.66,9.19,22.88,16.68,29.89,21.91,3.51,2.62,6.22,4.67,8,6.08a18.26,18.26,0,0,1,2.7,2.26,18.56,18.56,0,0,1-3-1.86c-1.91-1.29-4.71-3.22-8.29-5.74-7.17-5-17.48-12.38-30.18-21.53C379.12,341.53,344.19,316.06,305.66,287.88Z" style="fill: rgb(245, 245, 245); transform-origin: 305.87px 287.595px;" id="elbmssvgomz" class="animable"></path><path d="M298.51,295.93l-86.16-86.35-26.24-26-7.19-7L177,174.7a6.69,6.69,0,0,0-.67-.59,6.69,6.69,0,0,0,.59.67c.44.44,1,1.06,1.82,1.87l7.08,7.14,26.22,26.06,87,85.58c34,33.38,64.67,63.65,86.77,85.7,11.05,11,19.95,20,26.06,26.22,3.05,3.12,5.4,5.56,7,7.23a18.81,18.81,0,0,1,2.31,2.64,18,18,0,0,1-2.67-2.29c-1.69-1.57-4.14-3.91-7.28-6.94-6.29-6.06-15.31-14.91-26.41-25.88C362.59,360.16,332.12,329.66,298.51,295.93Z" style="fill: rgb(245, 245, 245); transform-origin: 298.755px 295.665px;" id="elkqbgaeb5fme" class="animable"></path><path d="M290.18,302.8l-71.45-98.49c-9.2-12.53-16.64-22.69-21.81-29.73-2.58-3.48-4.6-6.18-6-8.05l-1.59-2.07a5.5,5.5,0,0,0-.57-.69,6.11,6.11,0,0,0,.48.75l1.5,2.13,5.86,8.14,21.79,29.75c18.53,25.06,44.1,59.64,72.36,97.84s53.82,72.76,72.16,97.92c9.17,12.58,16.55,22.79,21.59,29.89,2.52,3.55,4.46,6.31,5.75,8.21a18,18,0,0,1,1.86,3,18.4,18.4,0,0,1-2.27-2.67c-1.42-1.81-3.47-4.49-6.1-8-5.25-7-12.76-17.06-22-29.6C343.32,376,318,341.26,290.18,302.8Z" style="fill: rgb(245, 245, 245); transform-origin: 290.435px 302.585px;" id="el62s8zjlaw7c" class="animable"></path><path d="M280.86,308.3C259.41,266,240,227.77,226,200l-16.81-32.72c-2-3.83-3.56-6.81-4.63-8.87-.54-1-.95-1.74-1.24-2.29a6,6,0,0,0-.45-.76,4.71,4.71,0,0,0,.35.81l1.14,2.34c1.05,2.07,2.56,5.07,4.5,8.93l16.78,32.74L281.5,308c21.86,42,41.59,80.14,55.71,107.81,7.06,13.83,12.72,25,16.57,32.83,1.93,3.9,3.4,6.93,4.38,9a17.65,17.65,0,0,1,1.36,3.21,18.08,18.08,0,0,1-1.82-3c-1.11-2-2.72-5-4.76-8.8-4.07-7.67-9.89-18.82-17-32.62C321.69,388.81,302.25,350.57,280.86,308.3Z" style="fill: rgb(245, 245, 245); transform-origin: 281.195px 308.105px;" id="elm3ylphye189" class="animable"></path><path d="M270.77,312.29l-36.9-115.4c-4.79-14.72-8.67-26.64-11.36-34.92-1.36-4.09-2.43-7.27-3.16-9.47-.37-1.05-.65-1.87-.85-2.45a5.67,5.67,0,0,0-.33-.83,5.27,5.27,0,0,0,.22.86l.75,2.49,3,9.51c2.69,8.28,6.56,20.2,11.33,34.93l38,115.07c14.86,44.89,28.25,85.57,37.76,115.08,4.76,14.75,8.56,26.71,11.12,35,1.28,4.14,2.25,7.37,2.88,9.56a17.85,17.85,0,0,1,.83,3.39,17.38,17.38,0,0,1-1.32-3.24c-.78-2.14-1.89-5.32-3.29-9.43-2.8-8.21-6.76-20.11-11.58-34.84C298.21,398.12,285.14,357.35,270.77,312.29Z" style="fill: rgb(245, 245, 245); transform-origin: 271.115px 312.165px;" id="eliokhcpaaw1d" class="animable"></path><path d="M260.17,314.68c-7-46.73-13.37-89-18-119.68-2.37-15.28-4.29-27.65-5.63-36.24l-1.6-9.84q-.28-1.65-.45-2.55a5.59,5.59,0,0,0-.19-.87,5.29,5.29,0,0,0,.08.88c.08.61.2,1.47.35,2.57.33,2.29.82,5.61,1.45,9.87,1.32,8.59,3.24,21,5.6,36.24,4.89,30.61,11.63,72.84,19.09,119.51s14.2,88.88,18.87,119.49c2.34,15.3,4.17,27.7,5.37,36.28.6,4.28,1.05,7.62,1.32,9.88a17.41,17.41,0,0,1,.28,3.48,18.05,18.05,0,0,1-.78-3.4c-.43-2.24-1-5.56-1.74-9.82-1.45-8.54-3.46-20.91-5.86-36.21C273.54,403.68,267.15,361.39,260.17,314.68Z" style="fill: rgb(245, 245, 245); transform-origin: 260.507px 314.6px;" id="elmwga9s50xx8" class="animable"></path><path d="M249.32,315.4c.43-47.23.82-90,1.11-121,.06-15.45.12-28,.15-36.66,0-4.3,0-7.65,0-10,0-1.12,0-2,0-2.59a8.65,8.65,0,0,0-.05-.89,5,5,0,0,0-.06.88c0,.62,0,1.48-.06,2.6,0,2.31-.07,5.66-.12,10,0,8.69-.11,21.21-.18,36.66,0,31,0,73.74,0,121s0,90-.21,120.92c-.1,15.47-.25,28-.41,36.65-.08,4.33-.17,7.69-.26,10a19.37,19.37,0,0,1-.26,3.48,17.51,17.51,0,0,1-.24-3.48c-.06-2.28-.12-5.64-.16-10-.09-8.66-.11-21.18-.08-36.66C248.49,405.37,248.85,362.61,249.32,315.4Z" style="fill: rgb(245, 245, 245); transform-origin: 249.529px 315.355px;" id="elrcpz69jiol" class="animable"></path><path d="M238.48,314.47c7.89-46.6,15-88.77,20.22-119.33,2.51-15.26,4.53-27.61,5.94-36.19l1.55-9.85c.16-1.11.28-2,.37-2.57s.1-.88.09-.88a4.78,4.78,0,0,0-.2.86c-.12.61-.27,1.46-.48,2.55-.39,2.28-1,5.59-1.69,9.83-1.42,8.58-3.46,20.93-6,36.19-4.89,30.61-11.64,72.84-19.11,119.5S225,403.46,219.88,434c-2.55,15.28-4.67,27.63-6.2,36.15-.76,4.27-1.38,7.57-1.83,9.81a17.29,17.29,0,0,1-.82,3.39,19.07,19.07,0,0,1,.32-3.47c.29-2.26.76-5.59,1.41-9.87,1.28-8.57,3.23-20.95,5.71-36.23C223.44,403.21,230.55,361,238.48,314.47Z" style="fill: rgb(245, 245, 245); transform-origin: 238.842px 314.5px;" id="elovxx6qoemw" class="animable"></path><path d="M227.92,311.87,267,197.17c4.92-14.68,8.91-26.57,11.67-34.82l3.1-9.49c.34-1.07.59-1.89.78-2.48a7.06,7.06,0,0,0,.23-.85,4.13,4.13,0,0,0-.34.82c-.21.58-.5,1.39-.87,2.44-.76,2.19-1.85,5.37-3.26,9.44-2.77,8.25-6.76,20.14-11.69,34.81-9.74,29.47-23.17,70.13-38,115.06S200.35,397.67,190.42,427c-5,14.69-9,26.56-11.92,34.74-1.44,4.09-2.58,7.26-3.38,9.4a17.7,17.7,0,0,1-1.35,3.22,16.77,16.77,0,0,1,.86-3.38c.65-2.19,1.65-5.4,3-9.53,2.64-8.26,6.55-20.18,11.45-34.89C198.84,397.18,212.63,356.63,227.92,311.87Z" style="fill: rgb(245, 245, 245); transform-origin: 228.275px 311.945px;" id="el5x3zs21y86p" class="animable"></path><path d="M217.92,307.68c22.23-41.87,42.36-79.77,57-107.23,7.2-13.74,13-24.86,17.09-32.58l4.58-8.89,1.17-2.33a5.58,5.58,0,0,0,.36-.81,5.21,5.21,0,0,0-.46.76l-1.26,2.28c-1.09,2.05-2.68,5-4.72,8.82l-17.12,32.57L218.56,308c-21.81,42.06-41.62,80.13-56.12,107.6-7.25,13.73-13.17,24.82-17.33,32.46-2.07,3.82-3.7,6.77-4.84,8.76a17.59,17.59,0,0,1-1.84,3,17.24,17.24,0,0,1,1.4-3.2c1-2.06,2.49-5.08,4.46-9,3.93-7.75,9.7-18.92,16.89-32.68C175.56,387.43,195.66,349.52,217.92,307.68Z" style="fill: rgb(245, 245, 245); transform-origin: 218.275px 307.83px;" id="elknrl6v4c6g" class="animable"></path><path d="M208.71,302,282,204.84l22.07-29.56,5.94-8.07c.65-.92,1.16-1.62,1.52-2.12a4.33,4.33,0,0,0,.48-.75,5.89,5.89,0,0,0-.57.68l-1.6,2.06-6.07,8-22.08,29.54c-18.55,25-44.13,59.61-72.4,97.81s-53.84,72.75-72.54,97.65c-9.34,12.45-17,22.5-22.27,29.4-2.66,3.45-4.74,6.12-6.17,7.91A17.57,17.57,0,0,1,106,440a18.11,18.11,0,0,1,1.89-2.94c1.31-1.89,3.27-4.64,5.83-8.16,5.11-7.05,12.59-17.19,21.88-29.69C154.19,374.26,180.07,339.9,208.71,302Z" style="fill: rgb(245, 245, 245); transform-origin: 209.005px 302.17px;" id="elygag0ynd1qi" class="animable"></path><path d="M200.51,295l87.77-84.77c11.17-10.88,20.2-19.7,26.48-25.82l7.14-7.07,1.84-1.86a4.87,4.87,0,0,0,.6-.66,5.07,5.07,0,0,0-.68.59l-1.91,1.79-7.25,7L288,209.93l-87,85.55c-33.92,33.42-64.69,63.63-87.1,85.37-11.2,10.87-20.31,19.63-26.65,25.64-3.17,3-5.65,5.31-7.35,6.86a18.06,18.06,0,0,1-2.69,2.27A18.39,18.39,0,0,1,79.56,413c1.59-1.66,4-4.07,7-7.16,6.17-6.19,15.15-15.06,26.31-26C135.23,358,166.23,328,200.51,295Z" style="fill: rgb(245, 245, 245); transform-origin: 200.775px 295.22px;" id="elqk58zvdvs7s" class="animable"></path><path d="M193.52,286.78l100.12-70.31L323.88,195l8.17-5.89,2.11-1.56a4.86,4.86,0,0,0,.7-.56,7.2,7.2,0,0,0-.76.47L331.93,189l-8.27,5.77-30.25,21.43L194,287.36c-38.8,27.82-74,53-99.55,71-12.78,9-23.17,16.29-30.38,21.25-3.61,2.48-6.42,4.39-8.35,5.66a18.2,18.2,0,0,1-3,1.83,17.71,17.71,0,0,1,2.72-2.23c1.83-1.4,4.56-3.42,8.09-6,7.07-5.17,17.35-12.56,30.1-21.64C119.06,339.08,154.43,314.2,193.52,286.78Z" style="fill: rgb(245, 245, 245); transform-origin: 193.79px 287.045px;" id="el6yofios6uv6" class="animable"></path><path d="M187.92,277.62,298,223.56,331.27,207l9-4.56,2.33-1.22a4.67,4.67,0,0,0,.77-.45l-.82.35-2.38,1.13-9.08,4.42-33.29,16.52-109.56,55c-42.74,21.51-81.48,40.94-109.61,54.83-14.06,7-25.47,12.53-33.39,16.32-4,1.9-7,3.35-9.14,4.31a18.88,18.88,0,0,1-3.27,1.34,17.9,17.9,0,0,1,3-1.79c2-1.1,5-2.68,8.95-4.68,7.8-4,19.13-9.74,33.17-16.75C106.06,317.82,145,298.69,187.92,277.62Z" style="fill: rgb(245, 245, 245); transform-origin: 188.1px 277.88px;" id="eludb4zpy3uhl" class="animable"></path><path d="M183.85,267.71,301.2,231.35l35.51-11.19,9.63-3.11,2.49-.84a8,8,0,0,0,.84-.32,4.87,4.87,0,0,0-.87.21l-2.53.74-9.68,3L301.08,231l-117,37.42c-45.66,14.63-87,27.83-117,37.2-15,4.69-27.15,8.42-35.58,10.94-4.21,1.27-7.49,2.22-9.72,2.84a17.81,17.81,0,0,1-3.44.82,18.83,18.83,0,0,1,3.29-1.29c2.18-.77,5.41-1.87,9.58-3.25,8.35-2.75,20.46-6.65,35.44-11.4C96.58,294.74,138,281.86,183.85,267.71Z" style="fill: rgb(245, 245, 245); transform-origin: 184.005px 268.055px;" id="eljf9pts8b0r" class="animable"></path><path d="M181.42,257.29l121.71-17.76L340,234l10-1.59,2.6-.44a6,6,0,0,0,.88-.19,5.51,5.51,0,0,0-.9.08l-2.61.34-10,1.44-36.86,5.53L181.53,258C134.1,265.38,91.14,272,60,276.62c-15.57,2.31-28.17,4.12-36.9,5.31-4.36.59-7.75,1-10,1.3a20.19,20.19,0,0,1-3.53.28,18.07,18.07,0,0,1,3.45-.78c2.28-.42,5.65-1,10-1.71,8.69-1.43,21.27-3.41,36.82-5.78C90.91,270.48,133.92,264.18,181.42,257.29Z" style="fill: rgb(245, 245, 245); transform-origin: 181.525px 257.645px;" id="el4ttozfo5aei" class="animable"></path><path d="M180.68,246.62l123,1,37.29.13,10.13,0,2.64,0a6.3,6.3,0,0,0,.9-.05,5.27,5.27,0,0,0-.9-.06l-2.64-.06L341,247.41l-37.29-.15-123,.07c-48,.06-91.51,0-123-.14-15.74-.09-28.48-.22-37.28-.38-4.4-.07-7.82-.16-10.14-.24a19.82,19.82,0,0,1-3.53-.26,17.58,17.58,0,0,1,3.53-.23c2.32-.07,5.74-.13,10.14-.17,8.81-.09,21.55-.13,37.29-.1C89.18,245.86,132.66,246.19,180.68,246.62Z" style="fill: rgb(245, 245, 245); transform-origin: 180.7px 246.775px;" id="elqko6t6hzeqp" class="animable"></path><path d="M181.62,236,303,255.76l36.81,5.83c4.33.65,7.7,1.15,10,1.51l2.61.36a5.44,5.44,0,0,0,.9.08,8.33,8.33,0,0,0-.88-.19l-2.6-.46-10-1.67-36.81-5.85L181.51,236.66C134.06,229.39,91.1,222.75,60,217.75c-15.53-2.5-28.09-4.57-36.76-6.07-4.34-.75-7.7-1.36-10-1.8a18.37,18.37,0,0,1-3.45-.8,17.87,17.87,0,0,1,3.53.31c2.3.28,5.69.75,10,1.38,8.72,1.25,21.31,3.16,36.85,5.59C91.35,221.22,134.26,228.19,181.62,236Z" style="fill: rgb(245, 245, 245); transform-origin: 181.555px 236.309px;" id="elscyzuo1xevs" class="animable"></path><path d="M184.25,225.57l116.69,38.36,35.42,11.45,9.66,3,2.52.76a6.65,6.65,0,0,0,.87.23,5.57,5.57,0,0,0-.84-.33l-2.49-.86-9.6-3.19-35.41-11.48-117-37.3c-45.7-14.52-87-27.73-116.93-37.48-14.94-4.87-27-8.86-35.34-11.69-4.16-1.41-7.39-2.53-9.56-3.32a19.05,19.05,0,0,1-3.28-1.32,18,18,0,0,1,3.44.84c2.22.64,5.49,1.62,9.7,2.92,8.4,2.59,20.53,6.42,35.49,11.23C97.47,197,138.72,210.57,184.25,225.57Z" style="fill: rgb(245, 245, 245); transform-origin: 184.185px 225.885px;" id="elo501tge760a" class="animable"></path><path d="M188.51,215.74l109.1,55.92,33.15,16.79,9,4.5,2.37,1.14a7,7,0,0,0,.82.36,5.06,5.06,0,0,0-.77-.46l-2.32-1.23-9-4.63-33.14-16.82L188.18,216.37C145.38,195,106.66,175.5,78.71,161.26c-14-7.12-25.26-12.94-33-17-3.88-2-6.89-3.64-8.91-4.75a19.36,19.36,0,0,1-3-1.81A17.74,17.74,0,0,1,37,139.05c2.1,1,5.17,2.45,9.11,4.38C54,147.29,65.35,153,79.36,160,107.37,174.14,146,193.88,188.51,215.74Z" style="fill: rgb(245, 245, 245); transform-origin: 188.375px 216.075px;" id="eljkuoonnmmv" class="animable"></path><path d="M194.29,206.68l98.86,72,30.07,21.68,8.22,5.83,2.16,1.5a7.23,7.23,0,0,0,.75.48,4.66,4.66,0,0,0-.69-.57L331.57,306l-8.13-6-30.05-21.7-99.53-71.12c-38.87-27.73-74-52.89-99.37-71.26-12.67-9.18-22.89-16.66-29.91-21.88-3.51-2.61-6.23-4.65-8-6.06a18.26,18.26,0,0,1-2.7-2.26,18.56,18.56,0,0,1,3,1.86c1.92,1.28,4.71,3.21,8.3,5.72,7.17,5,17.49,12.37,30.2,21.5C120.76,153.12,155.72,178.54,194.29,206.68Z" style="fill: rgb(245, 245, 245); transform-origin: 194.115px 206.945px;" id="el0rjh34svcgy" class="animable"></path><path d="M201.43,198.61l86.27,86.25,26.27,26,7.2,7,1.89,1.81a6.69,6.69,0,0,0,.67.59,3.88,3.88,0,0,0-.59-.67l-1.82-1.87-7.09-7.13-26.25-26-87.07-85.47c-34-33.34-64.75-63.57-86.88-85.59-11.06-11-20-20-26.09-26.19-3.06-3.12-5.41-5.55-7-7.22a18.63,18.63,0,0,1-2.31-2.64,17.85,17.85,0,0,1,2.67,2.29c1.69,1.56,4.15,3.9,7.29,6.93,6.29,6,15.33,14.88,26.44,25.85C137.26,134.47,167.78,164.92,201.43,198.61Z" style="fill: rgb(245, 245, 245); transform-origin: 201.18px 198.87px;" id="elqa5xodok5wb" class="animable"></path><path d="M209.75,191.74l71.58,98.39,21.84,29.72,6,8,1.58,2.07a5.62,5.62,0,0,0,.57.69,4,4,0,0,0-.48-.75c-.35-.51-.85-1.21-1.5-2.13l-5.87-8.13-21.82-29.72-72.49-97.75c-28.32-38.13-53.91-72.7-72.28-97.83-9.19-12.57-16.58-22.77-21.63-29.86-2.53-3.55-4.47-6.31-5.76-8.21a17.75,17.75,0,0,1-1.87-3A18.75,18.75,0,0,1,109.9,56c1.42,1.8,3.48,4.49,6.1,8,5.26,6.94,12.79,17.05,22,29.58C156.52,118.56,181.85,153.32,209.75,191.74Z" style="fill: rgb(245, 245, 245); transform-origin: 209.47px 191.92px;" id="elw4ect9d5q7" class="animable"></path><path d="M219.07,186.23l55.05,108.19L291,327.12l4.65,8.86,1.24,2.29a6,6,0,0,0,.45.76,4.71,4.71,0,0,0-.35-.81l-1.15-2.34c-1-2.07-2.56-5.07-4.5-8.93l-16.83-32.71L218.42,186.55c-21.91-42-41.69-80.09-55.84-107.74C155.5,65,149.82,53.77,146,46c-1.93-3.89-3.41-6.92-4.38-9a17,17,0,0,1-1.37-3.21,19,19,0,0,1,1.82,3c1.11,2,2.72,5,4.77,8.8,4.09,7.66,9.91,18.8,17,32.6C178.13,105.76,197.61,144,219.07,186.23Z" style="fill: rgb(245, 245, 245); transform-origin: 218.795px 186.41px;" id="elowrceme7vo" class="animable"></path><path d="M229.15,182.22c14.46,45.05,27.56,85.81,37,115.36,4.81,14.71,8.7,26.63,11.4,34.9,1.37,4.09,2.44,7.27,3.17,9.47.37,1.05.66,1.87.86,2.45a4.67,4.67,0,0,0,.33.82,5.68,5.68,0,0,0-.22-.85c-.18-.6-.43-1.42-.76-2.49-.7-2.21-1.72-5.4-3-9.51l-11.38-34.91c-9.76-29.46-23.24-70.11-38.13-115s-28.35-85.54-37.9-115c-4.78-14.74-8.59-26.7-11.16-35-1.29-4.14-2.26-7.36-2.89-9.55a16.61,16.61,0,0,1-.84-3.39A18.3,18.3,0,0,1,177,22.72c.78,2.14,1.9,5.32,3.3,9.42,2.81,8.21,6.79,20.11,11.63,34.83C201.59,96.42,214.72,137.19,229.15,182.22Z" style="fill: rgb(245, 245, 245); transform-origin: 228.77px 182.37px;" id="elq3jnjnne7o" class="animable"></path><path d="M239.74,179.82c7.08,46.73,13.49,89,18.13,119.66,2.4,15.27,4.34,27.64,5.68,36.23.7,4.25,1.24,7.55,1.62,9.84.19,1.1.34,1.94.45,2.55a5.59,5.59,0,0,0,.19.87,5.3,5.3,0,0,0-.08-.89c-.08-.61-.2-1.46-.35-2.57-.34-2.28-.83-5.6-1.46-9.86l-5.65-36.23c-4.93-30.61-11.73-72.83-19.24-119.49S224.71,91.07,220,60.46c-2.36-15.3-4.21-27.69-5.42-36.27-.61-4.28-1.05-7.62-1.33-9.88a17.33,17.33,0,0,1-.28-3.47,18.51,18.51,0,0,1,.78,3.39c.43,2.24,1,5.56,1.76,9.82C217,32.59,219,45,221.41,60.25,226.26,90.83,232.7,133.12,239.74,179.82Z" style="fill: rgb(245, 245, 245); transform-origin: 239.388px 179.905px;" id="eli6z2i2la4m" class="animable"></path><path d="M250.59,179.08c-.37,47.24-.71,90-1,121,0,15.46-.08,28-.11,36.66,0,4.31,0,7.66,0,10,0,1.12,0,2,0,2.59a8.65,8.65,0,0,0,0,.89,5.06,5.06,0,0,0,.06-.89c0-.61,0-1.47.06-2.59,0-2.31.06-5.66.11-10,0-8.69.07-21.2.13-36.66,0-31-.09-73.73-.15-121s-.11-90,.06-120.92c.08-15.48.21-28,.36-36.66.08-4.33.16-7.69.25-10a17.18,17.18,0,0,1,.26-3.47,19.72,19.72,0,0,1,.24,3.48c.07,2.28.13,5.64.17,10,.1,8.66.14,21.19.12,36.66C251.3,89.12,251,131.87,250.59,179.08Z" style="fill: rgb(245, 245, 245); transform-origin: 250.329px 179.125px;" id="el9clzxgv42w6" class="animable"></path><path d="M261.44,180c-7.84,46.6-14.93,88.78-20.07,119.35-2.49,15.26-4.5,27.62-5.9,36.2-.66,4.25-1.17,7.56-1.53,9.85-.16,1.11-.28,2-.36,2.57a4.79,4.79,0,0,0-.09.88,6.19,6.19,0,0,0,.2-.87l.46-2.55c.4-2.28,1-5.58,1.69-9.83,1.4-8.57,3.43-20.93,5.93-36.19,4.85-30.62,11.55-72.85,19-119.53S274.81,91,279.88,60.44c2.52-15.27,4.63-27.62,6.15-36.15.76-4.27,1.37-7.57,1.82-9.81a17.61,17.61,0,0,1,.81-3.39,17.3,17.3,0,0,1-.31,3.47c-.29,2.26-.76,5.59-1.4,9.87-1.27,8.57-3.2,21-5.67,36.24C276.36,91.24,269.31,133.43,261.44,180Z" style="fill: rgb(245, 245, 245); transform-origin: 261.076px 179.97px;" id="el06ne9spbsw7t" class="animable"></path><path d="M272,182.59C256.79,227.4,243,268,233.06,297.34c-4.9,14.69-8.86,26.58-11.62,34.83-1.33,4.1-2.37,7.29-3.09,9.5-.33,1.07-.59,1.89-.77,2.48a7.06,7.06,0,0,0-.23.85,4.13,4.13,0,0,0,.34-.82c.21-.58.49-1.39.87-2.45l3.24-9.44,11.65-34.82c9.7-29.49,23.07-70.16,37.86-115.11s28.15-85.61,38-115c4.94-14.69,9-26.57,11.87-34.75,1.43-4.1,2.57-7.27,3.37-9.41A18.28,18.28,0,0,1,325.93,20a17.06,17.06,0,0,1-.85,3.38c-.65,2.19-1.65,5.41-3,9.54-2.63,8.26-6.52,20.19-11.4,34.9C301,97.24,287.23,137.81,272,182.59Z" style="fill: rgb(245, 245, 245); transform-origin: 271.64px 182.5px;" id="el9eglqmx5szp" class="animable"></path><path d="M282,186.76,225.2,294.07c-7.19,13.75-13,24.87-17.06,32.6l-4.57,8.9-1.16,2.33a5.06,5.06,0,0,0-.36.81,6.08,6.08,0,0,0,.46-.76l1.25-2.29c1.1-2,2.68-5,4.71-8.82l17.08-32.59,55.82-107.81c21.75-42.09,41.5-80.18,56-107.67,7.23-13.74,13.13-24.84,17.28-32.48,2.07-3.82,3.69-6.78,4.83-8.77a18,18,0,0,1,1.84-3,19,19,0,0,1-1.4,3.21c-1,2.06-2.49,5.08-4.45,9-3.92,7.75-9.67,18.92-16.85,32.7C324.26,107,304.21,144.9,282,186.76Z" style="fill: rgb(245, 245, 245); transform-origin: 281.685px 186.615px;" id="elst9giayh4hq" class="animable"></path><path d="M291.22,192.44l-73.17,97.25-22,29.58c-2.56,3.49-4.56,6.21-5.93,8.09-.66.91-1.16,1.61-1.52,2.12a6.14,6.14,0,0,0-.49.74,5.23,5.23,0,0,0,.58-.68l1.6-2.06,6-8c5.23-7,12.75-17.09,22.05-29.56L290.64,192c28.18-38.24,53.75-72.82,72.41-97.75,9.33-12.46,16.93-22.51,22.23-29.42,2.66-3.46,4.73-6.13,6.17-7.92a18.49,18.49,0,0,1,2.29-2.66,18.12,18.12,0,0,1-1.88,2.95c-1.31,1.89-3.27,4.64-5.82,8.17-5.11,7-12.57,17.21-21.84,29.71C345.65,120.11,319.81,154.5,291.22,192.44Z" style="fill: rgb(245, 245, 245); transform-origin: 290.925px 192.235px;" id="el59jm3g01twq" class="animable"></path><path d="M299.43,199.45l-87.67,84.88-26.43,25.85-7.14,7.08c-.79.81-1.4,1.42-1.83,1.87a4.11,4.11,0,0,0-.6.66,6.69,6.69,0,0,0,.67-.59c.46-.42,1.09-1,1.91-1.79l7.24-7c6.28-6.12,15.31-14.94,26.46-25.83L298.92,199c33.88-33.46,64.61-63.71,87-85.48,11.19-10.89,20.28-19.66,26.62-25.67,3.16-3,5.64-5.33,7.34-6.88a18.6,18.6,0,0,1,2.68-2.27,17.59,17.59,0,0,1-2.33,2.62c-1.58,1.66-4,4.08-7,7.18-6.15,6.19-15.13,15.08-26.27,26C364.63,136.32,333.67,166.35,299.43,199.45Z" style="fill: rgb(245, 245, 245); transform-origin: 299.16px 199.245px;" id="ele7002cljsr" class="animable"></path><path d="M306.43,207.63l-100,70.45-30.21,21.49-8.17,5.9-2.1,1.56a7.61,7.61,0,0,0-.7.56,4.45,4.45,0,0,0,.76-.47l2.17-1.48,8.26-5.78,30.22-21.47L306,207.06c38.76-27.87,73.9-53.06,99.45-71.14,12.78-9,23.15-16.31,30.36-21.29,3.6-2.48,6.42-4.39,8.34-5.67a18.2,18.2,0,0,1,3-1.83,18.2,18.2,0,0,1-2.71,2.24c-1.84,1.39-4.56,3.42-8.09,6C429.3,120.55,419,128,406.29,137.05,380.82,155.25,345.49,180.17,306.43,207.63Z" style="fill: rgb(245, 245, 245); transform-origin: 306.2px 207.36px;" id="eldlet7neem6b" class="animable"></path><path d="M312,216.79,202,271l-33.25,16.58-9,4.58-2.33,1.21a4.67,4.67,0,0,0-.77.45,4.56,4.56,0,0,0,.82-.35l2.38-1.13L169,287.9l33.26-16.56,109.49-55.19c42.72-21.57,81.43-41,109.54-55,14.06-7,25.46-12.56,33.37-16.36,3.95-1.9,7-3.36,9.14-4.32a19.8,19.8,0,0,1,3.26-1.35,17.52,17.52,0,0,1-3,1.8c-2,1.1-5.05,2.68-8.95,4.69-7.8,4-19.12,9.76-33.14,16.79C393.85,176.48,355,195.67,312,216.79Z" style="fill: rgb(245, 245, 245); transform-origin: 311.855px 216.47px;" id="el67ztunwgmuh" class="animable"></path><path d="M316.12,226.7l-117.3,36.5-35.49,11.24-9.63,3.12-2.49.85a4.63,4.63,0,0,0-.84.32,5.49,5.49,0,0,0,.87-.22l2.53-.74,9.67-3,35.5-11.21L315.9,226c45.63-14.7,87-27.94,117-37.35,15-4.71,27.15-8.46,35.57-11,4.21-1.27,7.49-2.23,9.72-2.85a18.3,18.3,0,0,1,3.44-.83,18.66,18.66,0,0,1-3.29,1.3c-2.18.78-5.41,1.87-9.58,3.26-8.35,2.77-20.45,6.68-35.42,11.45C403.36,199.55,361.91,212.48,316.12,226.7Z" style="fill: rgb(245, 245, 245); transform-origin: 316px 226.35px;" id="eli1eof1eb33" class="animable"></path><path d="M318.56,237.12,196.88,255,160,260.62l-10,1.6-2.6.45a7.3,7.3,0,0,0-.88.18,4.32,4.32,0,0,0,.9-.08l2.61-.34,10-1.44,36.85-5.58,121.51-19c47.42-7.45,90.37-14.13,121.5-18.78,15.56-2.33,28.16-4.16,36.88-5.36,4.36-.59,7.75-1,10.05-1.31a18,18,0,0,1,3.54-.28,19.73,19.73,0,0,1-3.46.78c-2.28.42-5.64,1-10,1.72-8.68,1.45-21.25,3.44-36.81,5.83C409.06,223.8,366.06,230.16,318.56,237.12Z" style="fill: rgb(245, 245, 245); transform-origin: 318.44px 236.764px;" id="eldsdoxn6btbe" class="animable"></path><rect x="25.81" y="293.3" width="455.18" height="190.05" style="fill: rgb(245, 245, 245); transform-origin: 253.4px 388.325px;" id="el55xlc7k05su" class="animable"></rect><g id="el1fid5j6qg1ti"><rect x="100.25" y="377.51" width="1" height="158.91" style="fill: rgb(224, 224, 224); transform-origin: 100.75px 456.965px; transform: rotate(-70.61deg);" class="animable" id="elk4wc14wuesh"></rect></g><g id="el8czekmu8gy9"><rect x="325.3" y="456.47" width="158.91" height="1" style="fill: rgb(224, 224, 224); transform-origin: 404.755px 456.97px; transform: rotate(-19.39deg);" class="animable" id="elr0m2bjv2woo"></rect></g><g id="el9kkkk7nd2an"><rect x="136.61" y="298.8" width="1" height="234.24" style="fill: rgb(224, 224, 224); transform-origin: 137.11px 415.92px; transform: rotate(-71.86deg);" class="animable" id="eljjtp5jto4p"></rect></g><g id="elsi1hxpano4"><rect x="242.79" y="415.42" width="242.52" height="1" style="fill: rgb(224, 224, 224); transform-origin: 364.05px 415.92px; transform: rotate(-17.52deg);" class="animable" id="el3weri5rib3y"></rect></g><g id="elfhyu67t7v0e"><rect x="136.61" y="238.57" width="1" height="234.24" style="fill: rgb(224, 224, 224); transform-origin: 137.11px 355.69px; transform: rotate(-71.86deg);" class="animable" id="elw18o0jdxp"></rect></g><g id="els6qd5c2ryt"><rect x="242.79" y="355.19" width="242.52" height="1" style="fill: rgb(224, 224, 224); transform-origin: 364.05px 355.69px; transform: rotate(-17.52deg);" class="animable" id="elrai3zxrhla"></rect></g><g id="el6mejsf2gm4u"><rect x="179.61" y="244.19" width="1" height="143.72" style="fill: rgb(224, 224, 224); transform-origin: 180.11px 316.05px; transform: rotate(-71.86deg);" class="animable" id="ellll7yvamdhr"></rect></g><g id="elpnchy24ojw"><rect x="244.97" y="315.58" width="148.62" height="1" style="fill: rgb(224, 224, 224); transform-origin: 319.28px 316.08px; transform: rotate(-17.51deg);" class="animable" id="eldg3tfnibh8"></rect></g><path d="M363.5,108.86l4.26,1.6-3.7,1.05a3.87,3.87,0,0,0-2.62,2.52l-1.34,4.09L358.45,114a3.87,3.87,0,0,0-2.26-2.19l-3.75-1.36,4.06-1.66a3.93,3.93,0,0,0,2.14-2.19l1.46-3.81,1,3.54A3.88,3.88,0,0,0,363.5,108.86Z" style="fill: rgb(235, 235, 235); transform-origin: 360.1px 110.455px;" id="eln8yd8wmilo9" class="animable"></path><path d="M105.65,140.36l4.27,1.61-3.7,1.05a3.86,3.86,0,0,0-2.62,2.51l-1.34,4.1-1.65-4.11a3.84,3.84,0,0,0-2.26-2.19L94.6,142l4.06-1.67a3.84,3.84,0,0,0,2.13-2.18l1.47-3.81,1,3.54A3.85,3.85,0,0,0,105.65,140.36Z" style="fill: rgb(235, 235, 235); transform-origin: 102.26px 141.985px;" id="eloq4dnw3yhc" class="animable"></path><path d="M453.3,194.49l4.26,1.6-3.7,1a3.85,3.85,0,0,0-2.61,2.52l-1.34,4.09-1.65-4.11a3.89,3.89,0,0,0-2.27-2.19l-3.74-1.36,4.05-1.66a3.87,3.87,0,0,0,2.14-2.19l1.47-3.81,1,3.54A3.87,3.87,0,0,0,453.3,194.49Z" style="fill: rgb(235, 235, 235); transform-origin: 449.905px 196.04px;" id="elj8jxfdes1n" class="animable"></path><path d="M162,104.67l2.67,1-2.32.66a2.4,2.4,0,0,0-1.63,1.57l-.84,2.56-1-2.57a2.46,2.46,0,0,0-1.42-1.37l-2.34-.85,2.54-1a2.4,2.4,0,0,0,1.33-1.36l.92-2.38.65,2.21A2.42,2.42,0,0,0,162,104.67Z" style="fill: rgb(235, 235, 235); transform-origin: 159.895px 105.695px;" id="eluu371mvb68" class="animable"></path><path d="M262.68,71.74l2.67,1L263,73.4A2.38,2.38,0,0,0,261.4,75l-.84,2.56-1-2.57a2.4,2.4,0,0,0-1.42-1.37l-2.34-.85,2.54-1a2.45,2.45,0,0,0,1.33-1.37l.92-2.38.66,2.21A2.4,2.4,0,0,0,262.68,71.74Z" style="fill: rgb(235, 235, 235); transform-origin: 260.575px 72.79px;" id="el7ryt445g3rl" class="animable"></path><path d="M127.81,107.52l7.05,2.65-6.12,1.74a6.39,6.39,0,0,0-4.32,4.15l-2.21,6.77L119.48,116a6.39,6.39,0,0,0-3.74-3.62l-6.19-2.25,6.7-2.75a6.36,6.36,0,0,0,3.53-3.61l2.43-6.29,1.73,5.85A6.38,6.38,0,0,0,127.81,107.52Z" style="fill: rgb(235, 235, 235); transform-origin: 122.205px 110.155px;" id="elsbw6mxz2sdi" class="animable"></path><path d="M311.21,69.21l6.73,2.53-5.84,1.65a6.11,6.11,0,0,0-4.13,4l-2.11,6.46-2.6-6.48a6.06,6.06,0,0,0-3.57-3.46l-5.91-2.14,6.4-2.63a6.11,6.11,0,0,0,3.37-3.45l2.31-6,1.66,5.58A6.09,6.09,0,0,0,311.21,69.21Z" style="fill: rgb(235, 235, 235); transform-origin: 305.86px 71.77px;" id="elqzvmh1wyh68" class="animable"></path><path d="M63.69,240.2l6.72,2.52-5.84,1.66a6.1,6.1,0,0,0-4.12,4l-2.11,6.46-2.6-6.47a6.11,6.11,0,0,0-3.58-3.46l-5.9-2.15,6.4-2.62A6.12,6.12,0,0,0,56,236.65l2.32-6L60,236.23A6.12,6.12,0,0,0,63.69,240.2Z" style="fill: rgb(235, 235, 235); transform-origin: 58.335px 242.745px;" id="el6rcjd42j3cb" class="animable"></path></g><g id="freepik--Table--inject-79" class="animable animator-active" style="transform-origin: 250px 293.28px;"><path d="M474.19,293.3c0,.14-100.38.26-224.18.26s-224.2-.12-224.2-.26S126.17,293,250,293,474.19,293.15,474.19,293.3Z" style="fill: rgb(38, 50, 56); transform-origin: 250px 293.28px;" id="eleyre3neah2n" class="animable"></path></g><g id="freepik--Cake--inject-79" class="animable" style="transform-origin: 250px 264.997px;"><ellipse cx="250" cy="384.42" rx="204.29" ry="46.16" style="fill: rgb(69, 90, 100); transform-origin: 250px 384.42px;" id="elp0vkf61hqro" class="animable"></ellipse><path d="M52.92,378.58a11.46,11.46,0,0,0,.9,4.14c1,2.59,3.67,5.93,8,9C70.43,398,85,403.61,103.38,408.22,140.26,417.45,192.8,423,250.76,423s110.53-5.58,147.41-14.81c18.39-4.61,32.95-10.23,41.58-16.48,4.31-3.09,6.95-6.43,8-9a11.46,11.46,0,0,0,.9-4.14s0,.37,0,1.09a11,11,0,0,1-.78,3.09,16.29,16.29,0,0,1-2.73,4.39,30.49,30.49,0,0,1-5.22,4.76c-8.64,6.33-23.21,12-41.61,16.66-36.9,9.34-89.48,15-147.5,15s-110.56-5.64-147.47-15c-18.4-4.65-33-10.33-41.61-16.66a30.49,30.49,0,0,1-5.22-4.76,16.36,16.36,0,0,1-2.74-4.39,11.26,11.26,0,0,1-.77-3.09C52.92,379,52.92,378.58,52.92,378.58Z" style="fill: rgb(38, 50, 56); transform-origin: 250.785px 401.065px;" id="el4qbr5zwqggf" class="animable"></path><path d="M240.85,425.37A4.55,4.55,0,0,0,239,425l-20.68-.87c-1.91-.18-3.4-.08-3.94.55a1.28,1.28,0,0,0-.09,2,3.63,3.63,0,0,0,2.14.78,112.6,112.6,0,0,0,22.92.75c1-.07,2.25-.38,2.39-1.37A1.51,1.51,0,0,0,240.85,425.37Z" style="fill: rgb(255, 255, 255); transform-origin: 227.797px 426.265px;" id="elkosu3kqv4v" class="animable"></path><polygon points="393.51 219.51 393.51 393.79 422.12 376.98 422.12 202.7 393.51 219.51" style="fill: rgb(255, 191, 157); transform-origin: 407.815px 298.245px;" id="elxuulvocogq" class="animable"></polygon><path d="M393.51,251.44v12.43c18.65-5,28.61-14.62,28.61-16.81V234.64C422.26,234.89,412.16,246.48,393.51,251.44Z" style="fill: #FFFFFF; transform-origin: 407.816px 249.255px;" id="elyi0w7xx7zti" class="animable"></path><g id="el7gro3rjx4i6"><g style="opacity: 0.8; transform-origin: 407.816px 249.255px;" class="animable" id="elrn94lbtu209"><path d="M393.51,251.44v12.43c18.65-5,28.61-14.62,28.61-16.81V234.64C422.26,234.89,412.16,246.48,393.51,251.44Z" style="fill: rgb(255, 255, 255); transform-origin: 407.816px 249.255px;" id="elvyvlhxfk5c8" class="animable"></path></g></g><path d="M254.83,377l36.54,29.33c-12,.48-24.25.72-36.54.72-91.77,0-167.29-13.56-167.29-30s75.52-30.05,167.29-30.05S422.12,360.5,422.12,377c0,6-10,11.85-28.61,16.81Z" style="fill: rgb(255, 191, 157); transform-origin: 254.83px 377.025px;" id="el491j9hcwyss" class="animable"></path><path d="M234.4,202.7c0,2.34,57,178.71,57,178.71l102.14,12.38V218.4Z" style="fill: rgb(255, 191, 157); transform-origin: 313.97px 298.245px;" id="elz4zta5zqzqn" class="animable"></path><polygon points="393.51 371.99 271.4 358.95 273.83 372.26 393.51 384.42 393.51 371.99" style="fill: #FFFFFF; transform-origin: 332.455px 371.685px;" id="el9sbkxbbn6bk" class="animable"></polygon><g id="elkkfjjnwrew"><g style="opacity: 0.3; transform-origin: 332.455px 371.685px;" class="animable" id="elug6yl8hmuhq"><polygon points="393.51 371.99 271.4 358.95 273.83 372.26 393.51 384.42 393.51 371.99" id="elshxm2519mih" class="animable" style="transform-origin: 332.455px 371.685px;"></polygon></g></g><polygon points="393.51 251.44 271.4 238.4 273.83 251.71 393.51 263.87 393.51 251.44" style="fill: #FFFFFF; transform-origin: 332.455px 251.135px;" id="elg0jpl5ytyno" class="animable"></polygon><g id="el3ahnc266rof"><g style="opacity: 0.8; transform-origin: 332.455px 251.135px;" class="animable" id="elqwsu1unb01"><polygon points="393.51 251.44 271.4 238.4 273.83 251.71 393.51 263.87 393.51 251.44" style="fill: rgb(255, 255, 255); transform-origin: 332.455px 251.135px;" id="elad0m341kznv" class="animable"></polygon></g></g><polygon points="393.51 281.9 271.4 268.86 273.83 282.17 393.51 294.33 393.51 281.9" style="fill: #FFFFFF; transform-origin: 332.455px 281.595px;" id="el7uj6gutbbr" class="animable"></polygon><g id="elqy4y88p13"><g style="opacity: 0.7; transform-origin: 332.455px 281.595px;" class="animable" id="el3j6be7yin7p"><polygon points="393.51 281.9 271.4 268.86 273.83 282.17 393.51 294.33 393.51 281.9" style="fill: rgb(255, 255, 255); transform-origin: 332.455px 281.595px;" id="elcffp6xma6k4" class="animable"></polygon></g></g><polygon points="393.51 312.44 271.4 299.39 273.83 312.7 393.51 324.86 393.51 312.44" style="fill: #FFFFFF; transform-origin: 332.455px 312.125px;" id="eloivhs3ugmil" class="animable"></polygon><g id="elgvf26k58u7q"><g style="opacity: 0.3; transform-origin: 332.455px 312.125px;" class="animable" id="el5d3vrrwr6by"><polygon points="393.51 312.44 271.4 299.39 273.83 312.7 393.51 324.86 393.51 312.44" style="fill: rgb(255, 255, 255); transform-origin: 332.455px 312.125px;" id="elwhn7ya3khe" class="animable"></polygon></g></g><polygon points="393.51 342.64 271.4 329.6 273.83 342.91 393.51 355.06 393.51 342.64" style="fill: #FFFFFF; transform-origin: 332.455px 342.33px;" id="el13mlud1g33h" class="animable"></polygon><g id="elcdctj6gdezf"><g style="opacity: 0.3; transform-origin: 313.97px 298.245px;" class="animable" id="elfegbbooqhin"><path d="M234.4,202.7c0,2.34,57,178.71,57,178.71l102.14,12.38V218.4Z" id="elt0qdft2dqh" class="animable" style="transform-origin: 313.97px 298.245px;"></path></g></g><polygon points="291.37 232.89 291.37 406.31 87.54 373.95 87.54 203.56 291.37 232.89" style="fill: rgb(255, 191, 157); transform-origin: 189.455px 304.935px;" id="eltplu4s4urns" class="animable"></polygon><path d="M254.83,203.56l36.54,29.33c-12,.48-24.25.72-36.54.72-91.77,0-167.29-13.56-167.29-30.05s75.52-30.05,167.29-30.05,167.29,13.57,167.29,30.05c0,6-10,11.85-28.61,16.81Z" style="fill: #FFFFFF; transform-origin: 254.83px 203.56px;" id="el1q22iw3h0d7" class="animable"></path><path d="M254.83,294.89c-91.77,0-167.29-13.57-167.29-30.06v13.06c0,16.48,75.52,30.05,167.29,30.05,12.29,0,24.55-.25,36.54-.73v-13C279.38,294.64,267.12,294.89,254.83,294.89Z" style="fill: #FFFFFF; transform-origin: 189.455px 286.385px;" id="elzfptkx1hmlo" class="animable"></path><path d="M254.83,325.09c-91.77,0-167.29-13.57-167.29-30.06v13.05c0,16.49,75.52,30.06,167.29,30.06,12.29,0,24.55-.25,36.54-.73V324.36C279.38,324.84,267.12,325.09,254.83,325.09Z" style="fill: #FFFFFF; transform-origin: 189.455px 316.585px;" id="elw5j6m38b5n" class="animable"></path><g id="elxwygozspi0o"><g style="opacity: 0.3; transform-origin: 189.455px 316.585px;" class="animable" id="elk1jrgnl14vr"><path d="M254.83,325.09c-91.77,0-167.29-13.57-167.29-30.06v13.05c0,16.49,75.52,30.06,167.29,30.06,12.29,0,24.55-.25,36.54-.73V324.36C279.38,324.84,267.12,325.09,254.83,325.09Z" style="fill: rgb(255, 255, 255); transform-origin: 189.455px 316.585px;" id="elsxyy1p6dik" class="animable"></path></g></g><path d="M254.83,264.69c-91.77,0-167.29-13.57-167.29-30.05v13.05c0,16.48,75.52,30.05,167.29,30.05,12.29,0,24.55-.24,36.54-.73V264C279.38,264.44,267.12,264.69,254.83,264.69Z" style="fill: #FFFFFF; transform-origin: 189.455px 256.19px;" id="el6k60trioy1" class="animable"></path><g id="elulmiq1iy70k"><g style="opacity: 0.8; transform-origin: 189.455px 256.19px;" class="animable" id="elyu3sdl50d6f"><path d="M254.83,264.69c-91.77,0-167.29-13.57-167.29-30.05v13.05c0,16.48,75.52,30.05,167.29,30.05,12.29,0,24.55-.24,36.54-.73V264C279.38,264.44,267.12,264.69,254.83,264.69Z" style="fill: rgb(255, 255, 255); transform-origin: 189.455px 256.19px;" id="elae4o83xqlqf" class="animable"></path></g></g><path d="M393.51,282.65v12.43c18.65-5,28.61-14.62,28.61-16.81V265.84C422.26,266.1,412.16,277.68,393.51,282.65Z" style="fill: #FFFFFF; transform-origin: 407.816px 280.46px;" id="elpxylmmvdmpo" class="animable"></path><path d="M393.51,312v12.42c18.65-5,28.61-14.62,28.61-16.81V295.2C422.26,295.45,412.16,307,393.51,312Z" style="fill: #FFFFFF; transform-origin: 407.816px 309.81px;" id="elfyg7l9y2ndp" class="animable"></path><path d="M393.51,341.71v12.43c18.65-5,28.61-14.62,28.61-16.81V324.9C422.26,325.16,412.16,336.75,393.51,341.71Z" style="fill: #FFFFFF; transform-origin: 407.816px 339.52px;" id="elz9mea70rvfr" class="animable"></path><path d="M393.51,371.07v12.42c18.65-5,28.61-14.61,28.61-16.8V354.26C422.26,354.52,412.16,366.1,393.51,371.07Z" style="fill: #FFFFFF; transform-origin: 407.816px 368.875px;" id="elb0tyey8i0or" class="animable"></path><g id="el7ezzdpktkm"><g style="opacity: 0.3; transform-origin: 187.634px 249.226px;" class="animable" id="elwf2uoe73o0m"><path d="M84.36,207.13Q83,223.77,81.65,240.42c-.27,3.4-.53,7,.81,10.11s4.79,5.68,8.08,4.75c5.4-1.52,6.11-10.33,11.59-11.51a25.2,25.2,0,0,0,2.58,8.19c1.47,2.47,4.05,4.49,6.92,4.48,2.23,0,4.36-1.19,6.57-1,3.19.27,5.47,3.3,6.42,6.35s1,6.34,2.06,9.36a15.07,15.07,0,0,0,28.42.21c1.52-4.19,2.06-10,6.42-11,3.84-.85,7,3.17,10.81,4.09,4.14,1,8.19-1.82,11.24-4.79s6.07-6.45,10.23-7.32c7.13-1.49,13.3,5.41,15.79,12.25s3.24,14.58,7.86,20.21a17.89,17.89,0,0,0,29-1.91c2.64-4.24,4.05-10.1,8.81-11.64,5.39-1.76,10.32,3.46,15.7,5.26,6.1,2.05,13.14-.7,17.27-5.62s5.71-11.61,5.6-18-1.76-12.73-3.39-18.95l-29.08-26.81h-177" id="elt498lwnzjmn" class="animable" style="transform-origin: 187.634px 249.226px;"></path></g></g><path d="M84.36,198.62Q83,215.26,81.65,231.91c-.27,3.4-.53,7,.81,10.11s4.79,5.68,8.08,4.75c5.4-1.52,6.11-10.33,11.59-11.51a25.2,25.2,0,0,0,2.58,8.19c1.47,2.47,4.05,4.49,6.92,4.48,2.23,0,4.36-1.19,6.57-1,3.19.27,5.47,3.3,6.42,6.35s1,6.34,2.06,9.36a15.07,15.07,0,0,0,28.42.21c1.52-4.19,2.06-10,6.42-11,3.84-.85,7,3.17,10.81,4.09,4.14,1,8.19-1.82,11.24-4.79s6.07-6.45,10.23-7.32c7.13-1.49,13.3,5.41,15.79,12.25s3.24,14.58,7.86,20.21a17.89,17.89,0,0,0,29-1.91c2.64-4.24,4.05-10.1,8.81-11.64,5.39-1.76,10.32,3.46,15.7,5.27,6.1,2,13.14-.71,17.27-5.63s5.71-11.61,5.6-18-1.76-12.73-3.39-18.95l-29.08-26.81h-177" style="fill: #FFFFFF; transform-origin: 187.634px 240.716px;" id="elss8ujwn1npg" class="animable"></path><g id="elyo4zzsckcm"><g style="opacity: 0.7; transform-origin: 187.634px 240.716px;" class="animable" id="elmfmyux5fhkr"><path d="M84.36,198.62Q83,215.26,81.65,231.91c-.27,3.4-.53,7,.81,10.11s4.79,5.68,8.08,4.75c5.4-1.52,6.11-10.33,11.59-11.51a25.2,25.2,0,0,0,2.58,8.19c1.47,2.47,4.05,4.49,6.92,4.48,2.23,0,4.36-1.19,6.57-1,3.19.27,5.47,3.3,6.42,6.35s1,6.34,2.06,9.36a15.07,15.07,0,0,0,28.42.21c1.52-4.19,2.06-10,6.42-11,3.84-.85,7,3.17,10.81,4.09,4.14,1,8.19-1.82,11.24-4.79s6.07-6.45,10.23-7.32c7.13-1.49,13.3,5.41,15.79,12.25s3.24,14.58,7.86,20.21a17.89,17.89,0,0,0,29-1.91c2.64-4.24,4.05-10.1,8.81-11.64,5.39-1.76,10.32,3.46,15.7,5.27,6.1,2,13.14-.71,17.27-5.63s5.71-11.61,5.6-18-1.76-12.73-3.39-18.95l-29.08-26.81h-177" style="fill: rgb(255, 255, 255); transform-origin: 187.634px 240.716px;" id="elq49dmsxt13" class="animable"></path></g></g><g id="elfq4mjv5gbb9"><g style="opacity: 0.3; transform-origin: 133.728px 256.101px;" class="animable" id="el8vavl5qr0bi"><path d="M129,249.1c.9,5.2,1.85,10.54,4.64,15A3.51,3.51,0,0,0,136,266a2.6,2.6,0,0,0,2.55-2.31,7.55,7.55,0,0,0-.67-3.69q-2-5.67-4.09-11.33a4.72,4.72,0,0,0-1-1.83,2.31,2.31,0,0,0-3.88,2" style="fill: rgb(255, 255, 255); transform-origin: 133.728px 256.101px;" id="el9pawp81kwnl" class="animable"></path></g></g><g id="elflr5l4hscjr"><g style="opacity: 0.3; transform-origin: 224.699px 264.998px;" class="animable" id="eleqzjikhafqa"><path d="M233.06,266.78c-1.13-.47-2.4,0-3.62.14-2.72.26-5.27-1.51-7-3.66s-2.79-4.7-4.33-7a7,7,0,0,0-1.48-1.6,1.2,1.2,0,0,0-1.89,1.26,53.92,53.92,0,0,0,5.67,13.39c1.72,2.88,4.09,5.84,7.42,6.25a6.38,6.38,0,0,0,6.77-4.95C234.92,269.16,234.46,267.35,233.06,266.78Z" style="fill: rgb(255, 255, 255); transform-origin: 224.699px 264.998px;" id="elqqn58kt2whj" class="animable"></path></g></g><path d="M217.11,234.38c0,.18-1.75.32-4.91.41s-7.72.13-13.36.07a347,347,0,0,1-44.06-2.94,205.4,205.4,0,0,1-23.91-4.77,154.27,154.27,0,0,1-18.9-6.31,110.27,110.27,0,0,1-12.11-5.77c-2.76-1.56-4.21-2.56-4.13-2.7.21-.39,6.36,2.93,16.9,6.76a186.35,186.35,0,0,0,18.83,5.69,238.44,238.44,0,0,0,23.68,4.53c17,2.35,32.51,3.07,43.75,3.67S217.12,234,217.11,234.38Z" style="fill: rgb(255, 255, 255); transform-origin: 156.418px 223.614px;" id="el0okzarjajig" class="animable"></path><path d="M240.35,234.34c0,.72-3.12,1.26-6.94,1.21s-6.91-.68-6.9-1.39,3.11-1.26,6.94-1.21S240.36,233.62,240.35,234.34Z" style="fill: rgb(255, 255, 255); transform-origin: 233.43px 234.25px;" id="elri4y7g7t4jr" class="animable"></path><path d="M283.68,255.48c.25.23-.24,1.37-1.62,2.82a12.63,12.63,0,0,1-6.94,3.7,9.68,9.68,0,0,1-7.75-2.06c-1.6-1.43-1.85-2.8-1.57-2.94s1.12.66,2.63,1.42a10.41,10.41,0,0,0,6.28,1,17,17,0,0,0,6.18-2.56C282.42,255.91,283.4,255.23,283.68,255.48Z" style="fill: rgb(255, 255, 255); transform-origin: 274.722px 258.781px;" id="elfn9dgqmrl9" class="animable"></path><g id="el0cbuyilqwqf"><g style="opacity: 0.3; transform-origin: 408.715px 232.365px;" class="animable" id="el9c5erzdcb6h"><path d="M393.51,242.08c.41-1.47.2-2.5,1.08-3.75a4.51,4.51,0,0,1,3.86-2.1,4.77,4.77,0,0,1,3.46,2.42,25.07,25.07,0,0,1,1.72,4c1.11,2.78,3.24,5.59,6.23,5.81a6.61,6.61,0,0,0,5.23-2.44,17.32,17.32,0,0,0,2.83-5.23,96,96,0,0,0,6-24.52s-21.33,2.29-21.9,2.1-8.28,5.34-8.28,5.34Z" id="elcid3r2hovdb" class="animable" style="transform-origin: 408.715px 232.365px;"></path></g></g><g id="eli3z36hvlar"><g style="opacity: 0.3; transform-origin: 329.975px 230.541px;" class="animable" id="ell3yblc9bfb"><path d="M277.16,213.17c6.72-1.74,12.93,1.13,17.24,6.56,3.79,4.78,5.05,11.29,9.31,15.64a15.35,15.35,0,0,0,16.83,3.14c5.58-2.53,9.92-8.52,16-8.31,4.21.14,7.72,3.35,10,6.9s3.71,7.6,6.16,11a22.47,22.47,0,0,0,40-7.39,22.73,22.73,0,0,0,.52-2.48L391,222l-107.58-16.4-16.69-2Z" id="elc2bydwudzas" class="animable" style="transform-origin: 329.975px 230.541px;"></path></g></g><path d="M84.13,201.39s1.25-15.85,16.16-22.3,77.17-18.74,158.56-18.34S394,175,413.31,183.71c19.6,8.87,12.36,30.76,9.57,44.09-.9,4.3-2,8.85-5.08,11.94s-9,3.74-11.58.15c-1.71-2.43-1.29-5.7-1.8-8.63s-3.15-6.14-5.9-5c-1.82.74-2.47,2.9-3.13,4.74a25.47,25.47,0,0,1-19.33,16.47c-8.76,1.43-18.29-2.64-23-10.18-2.72-4.38-3.81-9.61-6.48-14s-8-8-12.81-6.18c-3.52,1.37-5.42,5.09-8.09,7.76a16,16,0,0,1-25-2.93c-2.72-4.41-3.64-10.48-8.27-12.81-3.09-1.55-6.94-2.28-10.21-1.17-9.69,3.29-14.5-3.47-17.67-6.27" style="fill: #FFFFFF; transform-origin: 255.322px 204.247px;" id="el2nraj101r0c" class="animable"></path><g id="elz9jco108hx"><g style="opacity: 0.7; transform-origin: 255.322px 204.247px;" class="animable" id="ele75wbjh2jvv"><path d="M84.13,201.39s1.25-15.85,16.16-22.3,77.17-18.74,158.56-18.34S394,175,413.31,183.71c19.6,8.87,12.36,30.76,9.57,44.09-.9,4.3-2,8.85-5.08,11.94s-9,3.74-11.58.15c-1.71-2.43-1.29-5.7-1.8-8.63s-3.15-6.14-5.9-5c-1.82.74-2.47,2.9-3.13,4.74a25.47,25.47,0,0,1-19.33,16.47c-8.76,1.43-18.29-2.64-23-10.18-2.72-4.38-3.81-9.61-6.48-14s-8-8-12.81-6.18c-3.52,1.37-5.42,5.09-8.09,7.76a16,16,0,0,1-25-2.93c-2.72-4.41-3.64-10.48-8.27-12.81-3.09-1.55-6.94-2.28-10.21-1.17-9.69,3.29-14.5-3.47-17.67-6.27" style="fill: rgb(255, 255, 255); transform-origin: 255.322px 204.247px;" id="eld7fupfv2ua5" class="animable"></path></g></g><path d="M420.09,194.31c.31.14,0,1.71-1.2,4a28.5,28.5,0,0,1-14.72,13c-2.41.89-4,1-4.11.71-.25-.73,5.45-3,10.9-7.87S419.4,194,420.09,194.31Z" style="fill: rgb(255, 255, 255); transform-origin: 410.127px 203.23px;" id="elr2jn79x1j6a" class="animable"></path><g id="elw3kompioght"><g style="opacity: 0.2; transform-origin: 329.716px 224.827px;" class="animable" id="elbjenjd8y9ua"><path d="M264.73,201.93c3.16,2.79,7.92,9.17,17.5,6,3.28-1.09,7.12-.38,10.21,1.17,4.63,2.33,5.55,8.4,8.27,12.81a16,16,0,0,0,25,2.93c2.67-2.67,4.57-6.39,8.09-7.76,4.81-1.86,10.14,1.77,12.81,6.18s3.76,9.64,6.48,14c4.69,7.54,14.22,11.61,23,10.18s13.43-6.71,17.45-13.84a54.61,54.61,0,0,0,1.05-14.7c-.66-7.07-6-7.16-10.64-7.49S264.73,201.93,264.73,201.93Z" id="elcmakcnu2xm9" class="animable" style="transform-origin: 329.716px 224.827px;"></path></g></g><g id="elzg1q34pxos"><g style="opacity: 0.3; transform-origin: 252.616px 196.817px;" class="animable" id="el98anmb69jsm"><path d="M390.87,206.44S251.3,192.13,251.62,194.67,285,224.56,280.87,227.1,97.75,230.6,93.93,198.17s156.42-32.37,185.35-32.75c14.62-.19,122.9,9.07,131.62,25.44C415,198.62,390.87,206.44,390.87,206.44Z" style="fill: rgb(255, 255, 255); transform-origin: 252.616px 196.817px;" id="eldpqxa12tfvl" class="animable"></path></g></g><path d="M254.83,385.48c-91.77,0-167.29-13.56-167.29-30.05v13.05c0,16.49,75.52,30,167.29,30,12.29,0,24.55-.24,36.54-.72V384.76C279.38,385.24,267.12,385.48,254.83,385.48Z" style="fill: #FFFFFF; transform-origin: 189.455px 376.955px;" id="eli0nldpzxpkm" class="animable"></path><path d="M254.83,355.28c-91.77,0-167.29-13.56-167.29-30v13c0,16.49,75.52,30.06,167.29,30.06,12.29,0,24.55-.25,36.54-.73V354.56C279.38,355,267.12,355.28,254.83,355.28Z" style="fill: #FFFFFF; transform-origin: 189.455px 346.81px;" id="elfr9lax15fdr" class="animable"></path><g id="elfigp8vbqun"><g style="opacity: 0.3; transform-origin: 189.455px 376.955px;" class="animable" id="elzrar2eobejh"><path d="M254.83,385.48c-91.77,0-167.29-13.56-167.29-30.05v13.05c0,16.49,75.52,30,167.29,30,12.29,0,24.55-.24,36.54-.72V384.76C279.38,385.24,267.12,385.48,254.83,385.48Z" id="elf5730s643j4" class="animable" style="transform-origin: 189.455px 376.955px;"></path></g></g><g id="eljb2gwt75h3"><g style="opacity: 0.7; transform-origin: 189.455px 286.385px;" class="animable" id="el14x9ypc8med"><path d="M254.83,294.89c-91.77,0-167.29-13.57-167.29-30.06v13.06c0,16.48,75.52,30.05,167.29,30.05,12.29,0,24.55-.25,36.54-.73v-13C279.38,294.64,267.12,294.89,254.83,294.89Z" style="fill: rgb(255, 255, 255); transform-origin: 189.455px 286.385px;" id="el4850s8cwjb4" class="animable"></path></g></g><g id="elivkcr4sl1db"><g style="opacity: 0.7; transform-origin: 407.816px 280.46px;" class="animable" id="elkxntxc8omtr"><path d="M393.51,282.65v12.43c18.65-5,28.61-14.62,28.61-16.81V265.84C422.26,266.1,412.16,277.68,393.51,282.65Z" style="fill: rgb(255, 255, 255); transform-origin: 407.816px 280.46px;" id="el2mycpesyekg" class="animable"></path></g></g><g id="elduse33kpp5s"><g style="opacity: 0.3; transform-origin: 407.816px 309.81px;" class="animable" id="elyykcyjcwl0i"><path d="M393.51,312v12.42c18.65-5,28.61-14.62,28.61-16.81V295.2C422.26,295.45,412.16,307,393.51,312Z" style="fill: rgb(255, 255, 255); transform-origin: 407.816px 309.81px;" id="eldm4cu4g8qu" class="animable"></path></g></g><g id="elt1ykgwtugo"><g style="opacity: 0.3; transform-origin: 407.816px 368.875px;" class="animable" id="el59o5ayehtei"><path d="M393.51,371.07v12.42c18.65-5,28.61-14.61,28.61-16.8V354.26C422.26,354.52,412.16,366.1,393.51,371.07Z" id="eln1e7rdtlze" class="animable" style="transform-origin: 407.816px 368.875px;"></path></g></g><g id="elwd1qajeytmm"><g style="opacity: 0.3; transform-origin: 160.445px 381.107px;" class="animable" id="elwiurbest08"><path d="M105.79,369c4.3,4.91,6.9,7.83,13.09,7.9,2.49,0,5.14-.34,7.33.94,4.11,2.4,5,9.64,9.55,10.74,5.25,1.27,9.91-7.19,14.9-5,2.26,1,3.33,3.84,5.23,5.51,2.46,2.17,6,2.15,9,1.39s6-2.14,9.16-2.36c5.12-.37,9.94,2.36,14.88,3.86,10.16,3.09,17.69.2,26.17-6.69Z" id="elj1wzdi746ke" class="animable" style="transform-origin: 160.445px 381.107px;"></path></g></g><path d="M102.26,366a23.72,23.72,0,0,0,16.62,7.19c2.49,0,5.14-.31,7.33.85,4.11,2.19,5,8.76,9.55,9.76,5.25,1.16,9.91-6.53,14.9-4.51,2.26.91,3.33,3.48,5.23,5,2.46,2,6,1.94,9,1.26s6-1.95,9.16-2.15c5.12-.34,9.94,2.14,14.88,3.51a35.46,35.46,0,0,0,30-5.55Z" style="fill: rgb(255, 191, 157); transform-origin: 160.595px 377.059px;" id="eljolbcouj6w" class="animable"></path><g id="elwtv85cthui"><g style="opacity: 0.1; transform-origin: 161.65px 290.613px;" class="animable" id="elqexx44d6r5j"><path d="M107,280.73c4.29,4,6.89,6.37,13.09,6.43,2.49,0,5.13-.28,7.33.77,4.11,1.95,5,7.83,9.54,8.73,5.26,1,9.91-5.85,14.9-4,2.26.82,3.34,3.12,5.24,4.48,2.45,1.76,6,1.75,9,1.13s6-1.74,9.15-1.92c5.12-.3,9.94,1.92,14.89,3.14,10.15,2.52,17.68.16,26.16-5.44Z" id="el9fstx7yhloo" class="animable" style="transform-origin: 161.65px 290.613px;"></path></g></g><path d="M103.43,278.32a26.64,26.64,0,0,0,16.63,5.84c2.49,0,5.13-.26,7.33.69,4.11,1.78,5,7.13,9.54,7.94,5.26.94,9.91-5.31,14.9-3.67,2.26.74,3.34,2.83,5.24,4.07,2.45,1.6,6,1.59,9,1s6-1.58,9.15-1.75c5.12-.27,9.94,1.75,14.89,2.86,10.15,2.28,21.55.57,30-4.52Z" style="fill: rgb(255, 191, 157); transform-origin: 161.77px 287.306px;" id="elenkl49pkyw8" class="animable"></path><g id="el2qzkxs4ugc9"><g style="opacity: 0.3; transform-origin: 226.835px 357.865px;" class="animable" id="elpmgdyn5agdf"><path d="M192.42,352a33.68,33.68,0,0,0,6.76,7.39c3.42,3,5.82,5.65,9.53,3,1.59-1.13,2.56-3.07,4.34-3.9,2.19-1,4.79,0,6.79,1.41s3.85,3.12,6.21,3.65c5.08,1.16,9.57-3.66,14.72-4.44,4.11-.61,8.12,1.4,12.23,2s8-3.59,8.25-7.74Z" id="elcr8y4epu7b" class="animable" style="transform-origin: 226.835px 357.865px;"></path></g></g><path d="M184.72,350.24l3.19.09A7.44,7.44,0,0,0,184.72,350.24Z" style="fill: rgb(255, 191, 157); transform-origin: 186.315px 350.219px;" id="elxhbslbi1tat" class="animable"></path><path d="M187.91,350.33c3.16.76,6,3.36,8.6,5.6,3.41,3,8.49,5.65,12.2,3,1.59-1.13,2.56-3.07,4.34-3.9,2.19-1,4.79,0,6.79,1.4s3.85,3.13,6.21,3.66c5.08,1.15,9.57-3.66,14.72-4.44,4.11-.62,8.12,1.4,12.23,2s9.4-1.22,9.68-5.37Z" style="fill: rgb(255, 191, 157); transform-origin: 225.295px 355.298px;" id="el4d2rc5ef8wu" class="animable"></path><g id="el26wq54mwv0r"><g style="opacity: 0.3; transform-origin: 128.847px 351.147px;" class="animable" id="elgsyizc936l"><path d="M131.7,350.49a2.86,2.86,0,0,0-3.74-1.94c-1.69.77-2,1.85-2,2.51a3,3,0,0,0,3.19,2.85A3,3,0,0,0,131.7,350.49Z" id="eltme9xm9gxb" class="animable" style="transform-origin: 128.847px 351.147px;"></path></g></g><g id="elrry7vihjxyh"><g style="opacity: 0.3; transform-origin: 184.977px 361.374px;" class="animable" id="el457ohbvppds"><path d="M186,359.11c-1.56-1-3.52-.54-3.82.89a3.28,3.28,0,0,0,1.06,3.2c1.42,1.22,3.52,1.31,4.3.18S187.58,360.1,186,359.11Z" id="el74t0er45riy" class="animable" style="transform-origin: 184.977px 361.374px;"></path></g></g><g id="elc9oyyln1bok"><g style="opacity: 0.3; transform-origin: 228.066px 393.48px;" class="animable" id="elzfos1ty20se"><path d="M229.09,391.22c-1.56-1-3.52-.55-3.81.88a3.28,3.28,0,0,0,1.05,3.21c1.42,1.21,3.53,1.31,4.3.17S230.65,392.21,229.09,391.22Z" id="el4usgcnmhg0t" class="animable" style="transform-origin: 228.066px 393.48px;"></path></g></g><g id="elt09qdwx421c"><g style="opacity: 0.3; transform-origin: 274.632px 393.272px;" class="animable" id="elbf3iwy0qtx7"><path d="M275.85,391a2.53,2.53,0,0,0-3.7,1.2,2.78,2.78,0,0,0,.71,3,2.89,2.89,0,0,0,4.07-.22A3,3,0,0,0,275.85,391Z" id="el4f1cgjy1as6" class="animable" style="transform-origin: 274.632px 393.272px;"></path></g></g><g id="el43azoh4s12y"><g style="opacity: 0.3; transform-origin: 100.951px 374.002px;" class="animable" id="el64iwg5iyr"><path d="M102.17,371.73a2.53,2.53,0,0,0-3.7,1.2,2.77,2.77,0,0,0,.71,3,2.89,2.89,0,0,0,4.07-.22A3,3,0,0,0,102.17,371.73Z" id="eltkk9gpwrdu" class="animable" style="transform-origin: 100.951px 374.002px;"></path></g></g><g id="eletf1ubctg0c"><g style="opacity: 0.3; transform-origin: 133.824px 322.49px;" class="animable" id="elxncgkqr88q"><path d="M134.84,320.23c-1.55-1-3.52-.55-3.81.88a3.3,3.3,0,0,0,1.05,3.21c1.42,1.21,3.53,1.31,4.31.17S136.4,321.22,134.84,320.23Z" id="elr8g6g2uuv3b" class="animable" style="transform-origin: 133.824px 322.49px;"></path></g></g><g id="elw1lipe40etp"><g style="opacity: 0.3; transform-origin: 232.624px 301.36px;" class="animable" id="elntjkdq999zg"><path d="M233.65,299.1c-1.56-1-3.53-.55-3.82.88a3.28,3.28,0,0,0,1.06,3.21c1.41,1.21,3.52,1.31,4.3.17S235.21,300.09,233.65,299.1Z" id="elkopb3bf1h2" class="animable" style="transform-origin: 232.624px 301.36px;"></path></g></g><g id="elccyffoxtgn"><g style="opacity: 0.3; transform-origin: 195.974px 271.122px;" class="animable" id="elev0fa1ohsbu"><path d="M197,268.86c-1.56-1-3.53-.54-3.82.89a3.26,3.26,0,0,0,1.06,3.2c1.41,1.21,3.52,1.31,4.3.17S198.56,269.85,197,268.86Z" id="elhv23x9avhrj" class="animable" style="transform-origin: 195.974px 271.122px;"></path></g></g><g id="elgcpy0spd0g"><g style="opacity: 0.3; transform-origin: 316.754px 282.973px;" class="animable" id="el0gk25ksrhpjc"><path d="M317.77,280.71c-1.55-1-3.52-.54-3.81.89a3.28,3.28,0,0,0,1.05,3.2c1.42,1.21,3.53,1.31,4.31.18S319.33,281.7,317.77,280.71Z" id="elj3iivanbfo" class="animable" style="transform-origin: 316.754px 282.973px;"></path></g></g><g id="elc6ny4zesice"><g style="opacity: 0.3; transform-origin: 231.244px 331.823px;" class="animable" id="elct5r4ns2xd9"><path d="M229.16,330.6c-.33.89.58,2.38,1.79,2.88,1.42.56,2,.22,2.23-.08.55-.75,0-2.22-1.09-3S229.5,329.7,229.16,330.6Z" id="eltegvzt7sgpe" class="animable" style="transform-origin: 231.244px 331.823px;"></path></g></g><g id="elv63ho63qutp"><g style="opacity: 0.3; transform-origin: 337.312px 255.221px;" class="animable" id="el5cuuei6f6ep"><path d="M335.23,254c-.34.9.58,2.38,1.79,2.88,1.42.57,2,.23,2.23-.08.55-.75,0-2.22-1.1-3S335.56,253.07,335.23,254Z" id="elk7oonp6i14p" class="animable" style="transform-origin: 337.312px 255.221px;"></path></g></g><g id="el2slxkb8ybtf"><g style="opacity: 0.3; transform-origin: 272.692px 362.952px;" class="animable" id="elf57r6aaxdk"><path d="M270.5,361.77c-1.09,1.48-.78,3.47.62,3.86a3.26,3.26,0,0,0,3.27-.83c1.31-1.33,1.55-3.43.47-4.28S271.6,360.28,270.5,361.77Z" id="el7wx1su5z387" class="animable" style="transform-origin: 272.692px 362.952px;"></path></g></g><g id="elgqtm19jyrzk"><g style="opacity: 0.3; transform-origin: 367.063px 316.446px;" class="animable" id="elf7sn5kic7sg"><path d="M365.9,318.65c1.5,1.08,3.49.75,3.86-.66a3.25,3.25,0,0,0-.87-3.26c-1.34-1.3-3.44-1.52-4.28-.43S364.4,317.57,365.9,318.65Z" id="elh0hkqgfwl9" class="animable" style="transform-origin: 367.063px 316.446px;"></path></g></g><g id="el07uj2zj2kspf"><g style="opacity: 0.3; transform-origin: 405.649px 344.379px;" class="animable" id="el5sqdqwebckb"><path d="M403.46,343.19c-1.1,1.49-.79,3.48.62,3.87a3.3,3.3,0,0,0,3.27-.83c1.31-1.33,1.55-3.43.47-4.28S404.55,341.71,403.46,343.19Z" id="el642pjygf4h" class="animable" style="transform-origin: 405.649px 344.379px;"></path></g></g><g id="elinfe6ikm6le"><g style="opacity: 0.3; transform-origin: 414.04px 279.611px;" class="animable" id="elaxo8g7e8bic"><path d="M411.91,278.35a2.42,2.42,0,0,0,.94,3.55,2.54,2.54,0,0,0,2.85-.42,2.5,2.5,0,1,0-3.79-3.13Z" id="eljjwor1djvt" class="animable" style="transform-origin: 414.04px 279.611px;"></path></g></g><g id="el6mrrn6x5qzv"><g style="opacity: 0.3; transform-origin: 403.885px 375.568px;" class="animable" id="el2bty8asub6"><path d="M403.07,375.12c-.41.55-.3,1.29.23,1.44a1.24,1.24,0,0,0,1.22-.31c.49-.5.58-1.28.17-1.6A1.27,1.27,0,0,0,403.07,375.12Z" id="el49quohurk3a" class="animable" style="transform-origin: 403.885px 375.568px;"></path></g></g><g id="elnlgs7ftefkc"><g style="opacity: 0.3; transform-origin: 408.498px 369.938px;" class="animable" id="elg37nvzt73cc"><path d="M407.68,369.49c-.41.55-.29,1.29.23,1.44a1.24,1.24,0,0,0,1.22-.31c.49-.5.58-1.28.18-1.6A1.28,1.28,0,0,0,407.68,369.49Z" id="elt1w7i90y4bf" class="animable" style="transform-origin: 408.498px 369.938px;"></path></g></g><g id="elpx3eozrt55r"><g style="opacity: 0.3; transform-origin: 311.789px 341.954px;" class="animable" id="elicd9nksw1e"><path d="M309.6,340.77c-1.1,1.48-.79,3.48.62,3.87a3.29,3.29,0,0,0,3.27-.84c1.31-1.33,1.55-3.43.47-4.28S310.69,339.28,309.6,340.77Z" id="eluvkgqvn1hp" class="animable" style="transform-origin: 311.789px 341.954px;"></path></g></g><g id="el1klr0seu9vo"><g style="opacity: 0.3; transform-origin: 122.2px 353.141px;" class="animable" id="elfeynizugu"><path d="M123.79,352.77a1.6,1.6,0,0,0-2.1-1.08c-1,.43-1.11,1-1.1,1.4a1.72,1.72,0,0,0,1.79,1.6A1.67,1.67,0,0,0,123.79,352.77Z" id="el1ghlp1ibvhr" class="animable" style="transform-origin: 122.2px 353.141px;"></path></g></g><g id="elx5v1vweynkj"><g style="opacity: 0.3; transform-origin: 98.9713px 342.272px;" class="animable" id="elboo2nfqcdla"><path d="M100.56,341.9a1.61,1.61,0,0,0-2.1-1.08c-.95.43-1.11,1-1.1,1.4a1.72,1.72,0,0,0,1.79,1.6A1.66,1.66,0,0,0,100.56,341.9Z" id="elz7dgs0sn8d" class="animable" style="transform-origin: 98.9713px 342.272px;"></path></g></g><g id="elua5u2qtjqf"><g style="opacity: 0.3; transform-origin: 189.941px 357.603px;" class="animable" id="el570qzsnfsy"><path d="M191.53,357.24a1.61,1.61,0,0,0-2.1-1.09c-1,.44-1.11,1-1.1,1.41a1.71,1.71,0,0,0,1.79,1.59A1.65,1.65,0,0,0,191.53,357.24Z" id="elw06l51espd" class="animable" style="transform-origin: 189.941px 357.603px;"></path></g></g><g id="eli73gbb8g7mg"><g style="opacity: 0.3; transform-origin: 414.156px 338.143px;" class="animable" id="elmcg39jhvhk"><path d="M415.74,337.77a1.6,1.6,0,0,0-2.09-1.08c-.95.43-1.11,1-1.1,1.4a1.7,1.7,0,0,0,1.78,1.6A1.66,1.66,0,0,0,415.74,337.77Z" id="eliqiiqkhmk9e" class="animable" style="transform-origin: 414.156px 338.143px;"></path></g></g><g id="elmgcwisx3qcn"><g style="opacity: 0.3; transform-origin: 409.577px 284.84px;" class="animable" id="elnmm76nal8ha"><path d="M410.63,284.59a1.07,1.07,0,0,0-1.39-.72c-.63.29-.74.69-.73.93a1.14,1.14,0,0,0,1.19,1.07A1.11,1.11,0,0,0,410.63,284.59Z" id="el1y3jhdx47vi" class="animable" style="transform-origin: 409.577px 284.84px;"></path></g></g><g id="el71hag08xtd"><g style="opacity: 0.3; transform-origin: 401.343px 317.063px;" class="animable" id="elfqvlagmnkfw"><path d="M402.4,316.82a1.06,1.06,0,0,0-1.39-.72c-.64.28-.74.69-.74.93a1.13,1.13,0,0,0,1.19,1.06A1.09,1.09,0,0,0,402.4,316.82Z" id="elo1b0yj9bvo" class="animable" style="transform-origin: 401.343px 317.063px;"></path></g></g><g id="eln3f0yc9e6r"><g style="opacity: 0.3; transform-origin: 237.167px 391.123px;" class="animable" id="elky5u8trwx6e"><path d="M238.75,390.75a1.6,1.6,0,0,0-2.09-1.08c-.95.43-1.11,1-1.1,1.4a1.72,1.72,0,0,0,1.79,1.6A1.65,1.65,0,0,0,238.75,390.75Z" id="elc3f8qn95wbr" class="animable" style="transform-origin: 237.167px 391.123px;"></path></g></g><g id="elfk9do5pm85v"><g style="opacity: 0.3; transform-origin: 142.737px 325.693px;" class="animable" id="elkgzby75d5q"><path d="M144.32,325.32a1.6,1.6,0,0,0-2.09-1.08c-.95.43-1.12,1-1.1,1.4a1.7,1.7,0,0,0,1.78,1.6A1.65,1.65,0,0,0,144.32,325.32Z" id="el7knorg4go49" class="animable" style="transform-origin: 142.737px 325.693px;"></path></g></g><g id="elqzwpn7zzyk"><g style="opacity: 0.3; transform-origin: 350.416px 315.038px;" class="animable" id="elu8pykubso1q"><path d="M352,314.67a1.6,1.6,0,0,0-2.09-1.09c-.95.44-1.11,1-1.1,1.41a1.71,1.71,0,0,0,1.78,1.6A1.66,1.66,0,0,0,352,314.67Z" id="el5w1zhtin37u" class="animable" style="transform-origin: 350.416px 315.038px;"></path></g></g><g id="elr6pb9l7hdj"><g style="opacity: 0.3; transform-origin: 218.797px 303.373px;" class="animable" id="elg900r4fwdge"><path d="M220.38,303a1.6,1.6,0,0,0-2.09-1.08c-.95.43-1.11,1-1.1,1.4a1.71,1.71,0,0,0,1.79,1.6A1.65,1.65,0,0,0,220.38,303Z" id="el7n045jqyi15" class="animable" style="transform-origin: 218.797px 303.373px;"></path></g></g><g id="elqekmxu3qwx"><g style="opacity: 0.3; transform-origin: 196.997px 363.087px;" class="animable" id="elqp7lndop7om"><path d="M197.83,362.89a.85.85,0,0,0-1.1-.57c-.5.23-.59.55-.58.74a.89.89,0,0,0,.94.84A.86.86,0,0,0,197.83,362.89Z" id="elno8uzcjjal" class="animable" style="transform-origin: 196.997px 363.087px;"></path></g></g><g id="elabhgoj34xcg"><g style="opacity: 0.3; transform-origin: 242.302px 394.998px;" class="animable" id="ellw57x5rbwi"><path d="M243.14,394.8a.86.86,0,0,0-1.11-.57c-.5.23-.58.55-.58.74a.91.91,0,0,0,1,.84A.87.87,0,0,0,243.14,394.8Z" id="el96g5y9yie2m" class="animable" style="transform-origin: 242.302px 394.998px;"></path></g></g><g id="elndboq2g8dy"><g style="opacity: 0.3; transform-origin: 276.391px 303.39px;" class="animable" id="elcq6ftwku92h"><path d="M277.23,303.2a.85.85,0,0,0-1.11-.58c-.5.23-.58.55-.58.74a.92.92,0,0,0,.95.85A.88.88,0,0,0,277.23,303.2Z" id="elgkt6hmcf716" class="animable" style="transform-origin: 276.391px 303.39px;"></path></g></g><path d="M191.15,322.81a1.52,1.52,0,0,1-.48,0H189.3c-1.2,0-2.93-.06-5.06-.16-4.26-.21-10.14-.67-16.61-1.42s-12.3-1.65-16.51-2.38c-2.1-.37-3.79-.69-5-.93l-1.35-.29a1.53,1.53,0,0,1-.46-.14,1.73,1.73,0,0,1,.48,0l1.36.19,5,.76c4.22.64,10,1.48,16.51,2.23S180,322,184.27,322.31l5,.33,1.37.1A1.65,1.65,0,0,1,191.15,322.81Z" style="fill: rgb(255, 255, 255); transform-origin: 167.73px 320.151px;" id="elz3qa9hczk5" class="animable"></path><path d="M178.55,351.82a13.26,13.26,0,0,1-2.78.07c-1.71,0-4.08-.17-6.69-.44s-5-.61-6.64-.92a12.68,12.68,0,0,1-2.71-.63,17.69,17.69,0,0,1,2.76.27c1.7.21,4,.5,6.64.77s5,.45,6.66.58A17.37,17.37,0,0,1,178.55,351.82Z" style="fill: rgb(255, 255, 255); transform-origin: 169.14px 350.916px;" id="elmubn1s33wzl" class="animable"></path><path d="M244.4,384.94a18.72,18.72,0,0,1-3.21.27c-2,.09-4.74.15-7.77.12s-5.78-.17-7.77-.31a17.37,17.37,0,0,1-3.2-.35,21.55,21.55,0,0,1,3.22,0l7.75.15,7.76,0A20.89,20.89,0,0,1,244.4,384.94Z" style="fill: rgb(255, 255, 255); transform-origin: 233.425px 384.974px;" id="elm98yyo3dmb" class="animable"></path><path d="M316.08,163c-.21,11.57-12.32,21.77-23.88,21.57a21,21,0,0,1-20.57-21.32c.21-11.56,11.81-21.5,23.37-21.3S316.28,151.46,316.08,163Z" style="fill: #FFFFFF; transform-origin: 293.855px 163.26px;" id="el341c7884myu" class="animable"></path><path d="M305.69,149.61c-.4,1.74-3.44,2.54-6.8,1.78s-5.76-2.78-5.37-4.52,3.43-2.54,6.79-1.79S306.08,147.87,305.69,149.61Z" style="fill: rgb(255, 255, 255); transform-origin: 299.605px 148.238px;" id="elbnfautviyh5" class="animable"></path><g id="elbxrrmdhkk9l"><g style="opacity: 0.2; transform-origin: 293.855px 168.511px;" class="animable" id="elsts8daufg1g"><path d="M306.14,166.22c-5.91,5.3-34.31-4.78-34.32-5.2a17.07,17.07,0,0,0-.19,2.25,21,21,0,0,0,20.57,21.32c11.56.2,23.67-10,23.88-21.57a19.89,19.89,0,0,0-2.84-10.59C312.8,154.68,311.07,161.81,306.14,166.22Z" style="fill: rgb(255, 255, 255); transform-origin: 293.855px 168.511px;" id="el9fy8dbcz69a" class="animable"></path></g></g><g id="elpuo8ilglxf"><g style="opacity: 0.3; transform-origin: 285.085px 150.065px;" class="animable" id="elaoaiwjtcmw"><path d="M280.92,153.52s3.68-1.52,6-.84a24.82,24.82,0,0,1,2.33-6.07S281.73,148.22,280.92,153.52Z" id="eluhxsx885yx" class="animable" style="transform-origin: 285.085px 150.065px;"></path></g></g><path d="M213.5,177.12c-7.4,8.89-23.22,9.28-32.12,1.88a21,21,0,0,1-2.7-29.5c7.4-8.89,22.67-9.39,31.57-2S220.9,168.23,213.5,177.12Z" style="fill: #FFFFFF; transform-origin: 195.993px 163.279px;" id="elzza62bfdlde" class="animable"></path><path d="M213.8,160.16c-1.4,1.11-4.27-.17-6.42-2.86s-2.75-5.78-1.36-6.89,4.27.16,6.42,2.86S215.2,159,213.8,160.16Z" style="fill: rgb(255, 255, 255); transform-origin: 209.912px 155.284px;" id="elfcjkxdgk5j7" class="animable"></path><g id="elzbaacuyqr2"><g style="opacity: 0.2; transform-origin: 195.892px 166.027px;" class="animable" id="el941e254gl8"><path d="M203.76,173.4c-7.93.43-23.77-25.21-23.52-25.54a18.64,18.64,0,0,0-1.56,1.64,21,21,0,0,0,2.7,29.5c8.9,7.4,24.72,7,32.12-1.88a19.89,19.89,0,0,0,4.43-10C216.18,168.56,210.37,173,203.76,173.4Z" style="fill: rgb(255, 255, 255); transform-origin: 195.892px 166.027px;" id="elj2oc5bb3ies" class="animable"></path></g></g><g id="el4xco4581kv5"><g style="opacity: 0.3; transform-origin: 197.395px 148.412px;" class="animable" id="eldtwa9sxo62i"><path d="M192,147.71s3.81,1.11,5.18,3.07a25.39,25.39,0,0,1,5.61-3.27S196,144.08,192,147.71Z" id="elct5rhntr5oh" class="animable" style="transform-origin: 197.395px 148.412px;"></path></g></g><g id="el6j2a9ldgdil"><g style="opacity: 0.3; transform-origin: 243.661px 200.937px;" class="animable" id="el4os1iffxzfd"><path d="M306.1,188.79c-2.12-2.65-5.15-4.39-8.1-6.06l-119,6.54c-.89,7.81,3.94,15.43,10.42,19.89s14.38,6.29,22.14,7.59c22.14,3.7,46.46,2.86,68.61-.79l-10.46-9.77c5-2.38,11.42-3,17-2.63,3.55.23,7.81,1.07,11.45,1s7.86-3.08,9.52-6.32C309.23,195.26,308.21,191.44,306.1,188.79Z" id="elvfchus3d6tn" class="animable" style="transform-origin: 243.661px 200.937px;"></path></g></g><path d="M303.8,192a23.87,23.87,0,0,0-23.13-27.62c3.89-11.22-1.26-24.86-11.6-30.71-3.94-2.23-8.44-3.4-12.24-5.85s-6.95-6.89-5.88-11.29c1-4.22,5.64-7.37,4.43-12a6.88,6.88,0,0,0-4.59-4.58c-3.9-1.31-7.85,0-11.47,1.58-9.23,3.94-18,9.57-24,17.6s-9,18.71-6.29,28.37a20.4,20.4,0,0,0-20,24.36,12.59,12.59,0,0,0-9.67,8,18.05,18.05,0,0,0-.93,4.69,22.38,22.38,0,0,0,10,20c8.24,5.55,23.57,11.42,50.45,9C286.3,209.18,303.8,192,303.8,192Z" style="fill: #FFFFFF; transform-origin: 241.244px 156.762px;" id="ely9tc3r73dg9" class="animable"></path><g id="elxl8biopr09"><g style="opacity: 0.9; transform-origin: 241.244px 156.762px;" class="animable" id="elsewzbz2sc1"><path d="M303.8,192a23.87,23.87,0,0,0-23.13-27.62c3.89-11.22-1.26-24.86-11.6-30.71-3.94-2.23-8.44-3.4-12.24-5.85s-6.95-6.89-5.88-11.29c1-4.22,5.64-7.37,4.43-12a6.88,6.88,0,0,0-4.59-4.58c-3.9-1.31-7.85,0-11.47,1.58-9.23,3.94-18,9.57-24,17.6s-9,18.71-6.29,28.37a20.4,20.4,0,0,0-20,24.36,12.59,12.59,0,0,0-9.67,8,18.05,18.05,0,0,0-.93,4.69,22.38,22.38,0,0,0,10,20c8.24,5.55,23.57,11.42,50.45,9C286.3,209.18,303.8,192,303.8,192Z" style="fill: rgb(255, 255, 255); transform-origin: 241.244px 156.762px;" id="elxcnzu3jovod" class="animable"></path></g></g><g id="elku09fbhpwt9"><g style="opacity: 0.1; transform-origin: 252.937px 169.733px;" class="animable" id="elhvlfoeb9gv4"><path d="M209,147.52c-1.22,9.13,7.31,18.9,16,23.13s18.85,4.1,28.52,3.36,19.51-2,28.93.31,19.63,8.1,21.3,17.65c-6.81-5.27-16.72-6.48-25.31-6.88s-17.17.86-25.72,1.85a85.29,85.29,0,0,1-25-.89c-8.48-1.47-15.38-4.47-20.68-11.25s-6.66-19.34-2.37-26.8A12.74,12.74,0,0,1,209,147.52Z" style="fill: #FFFFFF; transform-origin: 252.937px 169.733px;" id="eldenf4to6h3m" class="animable"></path></g></g><g id="elfbko6klm1a5"><g style="opacity: 0.1; transform-origin: 253.403px 136.565px;" class="animable" id="el343lsce804"><path d="M266.16,153.33c-13-2.32-19.91-4-26-10.55-4.23-4.52-5.17-11.39-3.82-17.44s4.67-11.44,8.14-16.57a38.49,38.49,0,0,0-18.72,28.28c-.57,4.75-.19,9.78,2.15,14,4,7.19,11.56,9.11,19.73,10.17,14.37,1.88,28.28-3.13,33.64,3.14h0C280.89,157.81,272.58,154.47,266.16,153.33Z" style="fill: #FFFFFF; transform-origin: 253.403px 136.565px;" id="el4iy8f9cfamp" class="animable"></path></g></g><g id="elqfawkq9u7eb"><g style="opacity: 0.1; transform-origin: 236.637px 190.631px;" class="animable" id="elp2990xkl1v9"><path d="M264.62,195.7c-7.28.11-14.47,1.52-21.71,2.26-10.8,1.11-22,.65-32.08-3.43S192,182.34,189,171.89l-2.23.63c-1.5,11.53,3.46,20.32,12.52,27.6s21.23,10.17,32.81,9c11.08-1.08,21.85-4.12,32.95-5a21.31,21.31,0,0,1,11.45,2.12l10.27-4.07C280.77,198,271.9,195.59,264.62,195.7Z" style="fill: #FFFFFF; transform-origin: 236.637px 190.631px;" id="elwv6pl471zed" class="animable"></path></g></g><path d="M212.68,216.73c1.58-2.45-4.42-9.79-8.25-6.72-3.25,2.61-8,7.36-3.87,8.64S211.61,218.4,212.68,216.73Z" style="fill: #FFFFFF; transform-origin: 205.945px 214.199px;" id="el9m4l5tat0m" class="animable"></path><path d="M183.51,209.45c1.57-2.44-4.42-9.79-8.25-6.72-3.25,2.61-3.33,5.84.81,7.11S182.44,211.12,183.51,209.45Z" style="fill: #FFFFFF; transform-origin: 178.327px 206.372px;" id="ela651rz404ec" class="animable"></path><path d="M328.15,179.44c.66-2.83-7.45-7.74-10-3.57-2.19,3.55-1.18,6.62,3.15,6.43S327.7,181.37,328.15,179.44Z" style="fill: rgb(255, 154, 108); transform-origin: 322.609px 178.283px;" id="elqn4rj2f6u2" class="animable"></path><path d="M146.1,208.3c1.19-1.86-3.36-7.44-6.27-5.11-2.47,2-6.09,5.6-2.94,6.57S145.29,209.56,146.1,208.3Z" style="fill: #FFFFFF; transform-origin: 140.978px 206.374px;" id="el2ygdzexci3k" class="animable"></path><path d="M165,186.05c1.19-1.86-3.36-7.43-6.27-5.1-2.47,2-6.09,5.59-2.94,6.56S164.21,187.32,165,186.05Z" style="fill: #FFFFFF; transform-origin: 159.878px 184.13px;" id="elwc1a5x9hczg" class="animable"></path><path d="M359.81,190.87c1.8-2.81-5.08-11.24-9.47-7.71-3.73,3-9.2,8.44-4.45,9.91S358.58,192.78,359.81,190.87Z" style="fill: #FFFFFF; transform-origin: 352.072px 187.963px;" id="el4zy3srxn8hn" class="animable"></path><path d="M224.18,215.75a3.64,3.64,0,0,0-3.61-.55,4.13,4.13,0,0,0-2.48,2.13,2.76,2.76,0,0,0,1.65,3.11,6.93,6.93,0,0,0,3.78.31,2.68,2.68,0,0,0,1.25-.37,2,2,0,0,0,.74-1.33A3.44,3.44,0,0,0,224.18,215.75Z" style="fill: rgb(255, 154, 108); transform-origin: 221.793px 217.915px;" id="ell0aq60iigr" class="animable"></path><path d="M380.74,192.77a3.64,3.64,0,0,0-3.61-.56,4.18,4.18,0,0,0-2.48,2.14,2.75,2.75,0,0,0,1.65,3.1,6.83,6.83,0,0,0,3.78.32,2.58,2.58,0,0,0,1.25-.38,2,2,0,0,0,.74-1.32A3.46,3.46,0,0,0,380.74,192.77Z" style="fill: rgb(255, 154, 108); transform-origin: 378.353px 194.932px;" id="elpk28vtlbtq" class="animable"></path><path d="M167.74,194.45a3.64,3.64,0,0,0-3.61-.56,4.18,4.18,0,0,0-2.48,2.14,2.75,2.75,0,0,0,1.65,3.1,7,7,0,0,0,3.78.32,2.58,2.58,0,0,0,1.25-.38,2,2,0,0,0,.74-1.32A3.44,3.44,0,0,0,167.74,194.45Z" style="fill: rgb(255, 154, 108); transform-origin: 165.354px 196.609px;" id="el22qk2ym1q5" class="animable"></path><path d="M319.4,186.35a3.6,3.6,0,0,0-3.6-.56,4.21,4.21,0,0,0-2.49,2.13A2.78,2.78,0,0,0,315,191a7,7,0,0,0,3.78.32A2.85,2.85,0,0,0,320,191a2,2,0,0,0,.74-1.32A3.45,3.45,0,0,0,319.4,186.35Z" style="fill: rgb(255, 154, 108); transform-origin: 317.025px 188.492px;" id="elput77aywxo" class="animable"></path><path d="M217.7,210.68a2.49,2.49,0,0,0-2.17,1.21,2.83,2.83,0,0,0-.43,2.18,1.88,1.88,0,0,0,2.18,1,4.63,4.63,0,0,0,2.15-1.41,1.73,1.73,0,0,0,.51-.72,1.32,1.32,0,0,0-.15-1A2.37,2.37,0,0,0,217.7,210.68Z" style="fill: rgb(255, 154, 108); transform-origin: 217.509px 212.907px;" id="el7zqchjg6l0m" class="animable"></path><path d="M161.76,208.66a2.46,2.46,0,0,0-2.16,1.21,2.79,2.79,0,0,0-.44,2.18,1.87,1.87,0,0,0,2.18,1,4.63,4.63,0,0,0,2.15-1.4,1.82,1.82,0,0,0,.52-.72,1.36,1.36,0,0,0-.16-1A2.36,2.36,0,0,0,161.76,208.66Z" style="fill: rgb(255, 154, 108); transform-origin: 161.571px 210.888px;" id="el6o44i9vsr7c" class="animable"></path><path d="M129.48,196.4a1.17,1.17,0,0,0-1,.58,1.29,1.29,0,0,0-.21,1,.89.89,0,0,0,1,.47,2.22,2.22,0,0,0,1-.67.81.81,0,0,0,.25-.34.69.69,0,0,0-.07-.49A1.14,1.14,0,0,0,129.48,196.4Z" style="fill: rgb(255, 154, 108); transform-origin: 129.391px 197.437px;" id="el43h6do8m8rk" class="animable"></path><path d="M145.9,192.41a2.46,2.46,0,0,0-2.17,1.2,2.84,2.84,0,0,0-.44,2.18,1.87,1.87,0,0,0,2.18,1,4.82,4.82,0,0,0,2.16-1.41,1.9,1.9,0,0,0,.51-.72,1.4,1.4,0,0,0-.15-1A2.34,2.34,0,0,0,145.9,192.41Z" style="fill: rgb(255, 154, 108); transform-origin: 145.703px 194.633px;" id="elb26l4sam32" class="animable"></path><path d="M332.66,185.66a2.49,2.49,0,0,0-2.17,1.21,2.88,2.88,0,0,0-.44,2.18,1.87,1.87,0,0,0,2.18,1,4.71,4.71,0,0,0,2.16-1.4,1.76,1.76,0,0,0,.51-.73,1.34,1.34,0,0,0-.15-1A2.36,2.36,0,0,0,332.66,185.66Z" style="fill: rgb(255, 154, 108); transform-origin: 332.466px 187.888px;" id="elmwc4y1fktk" class="animable"></path><path d="M251.88,186.4c-9.6,6.44-24.9,2.34-31.34-7.26a21,21,0,0,1,5.73-29.06c9.61-6.45,24.4-2.61,30.84,7S261.49,180,251.88,186.4Z" style="fill: #FFFFFF; transform-origin: 238.918px 168.203px;" id="elz98zikqt8p" class="animable"></path><path d="M257,170.21c-1.66.67-4-1.37-5.35-4.55s-1-6.33.64-7,4,1.36,5.34,4.55S258.61,169.53,257,170.21Z" style="fill: rgb(255, 255, 255); transform-origin: 254.635px 164.435px;" id="elxolj16a3qnn" class="animable"></path><g id="elmgixjxanof"><g style="opacity: 0.2; transform-origin: 237.986px 169.227px;" class="animable" id="el0hv7g3vhazqc"><path d="M243.58,180.08c-7.72-1.82-15.68-30.89-15.35-31.14a17.52,17.52,0,0,0-2,1.14,21,21,0,0,0-5.73,29.06c6.44,9.6,21.74,13.7,31.34,7.26A19.88,19.88,0,0,0,259,178C256.86,178.94,250,181.6,243.58,180.08Z" style="fill: rgb(255, 255, 255); transform-origin: 237.986px 169.227px;" id="elpsfpvlsgsr" class="animable"></path></g></g><g id="eleqm42atx4jp"><g style="opacity: 0.3; transform-origin: 244.795px 154.027px;" class="animable" id="elrgun4dm5rd9"><path d="M239.59,152.13s3.35,2.14,4.1,4.41A25,25,0,0,1,250,155S244.4,149.76,239.59,152.13Z" id="elhu0ye7aagbe" class="animable" style="transform-origin: 244.795px 154.027px;"></path></g></g><path d="M273.58,105.67s-14.65,3.09-22.07,19.54a90.28,90.28,0,0,0-7.82,31.33l1.15-.41s2.83-26.6,14-36.8,17.21-10,17.21-10Z" style="fill: rgb(38, 50, 56); transform-origin: 259.87px 131.105px;" id="eltvvvejqqsxr" class="animable"></path></g><defs>     <filter id="active" height="200%">         <feMorphology in="SourceAlpha" result="DILATED" operator="dilate" radius="2"></feMorphology>                <feFlood flood-color="#32DFEC" flood-opacity="1" result="PINK"></feFlood>        <feComposite in="PINK" in2="DILATED" operator="in" result="OUTLINE"></feComposite>        <feMerge>            <feMergeNode in="OUTLINE"></feMergeNode>            <feMergeNode in="SourceGraphic"></feMergeNode>        </feMerge>    </filter>    <filter id="hover" height="200%">        <feMorphology in="SourceAlpha" result="DILATED" operator="dilate" radius="2"></feMorphology>                <feFlood flood-color="#ff0000" flood-opacity="0.5" result="PINK"></feFlood>        <feComposite in="PINK" in2="DILATED" operator="in" result="OUTLINE"></feComposite>        <feMerge>            <feMergeNode in="OUTLINE"></feMergeNode>            <feMergeNode in="SourceGraphic"></feMergeNode>        </feMerge>            <feColorMatrix type="matrix" values="0   0   0   0   0                0   1   0   0   0                0   0   0   0   0                0   0   0   1   0 "></feColorMatrix>    </filter></defs></svg>